<svg xmlns="http://www.w3.org/2000/svg" width="301.877" height="188.882" viewBox="0 0 301.877 188.882">
  <g id="Group_12" data-name="Group 12" transform="translate(-402.192 -998.909)">
    <path id="Path_61" data-name="Path 61" d="M454.992,151.9a1.754,1.754,0,0,1-1.75,1.762H421.7a1.714,1.714,0,0,1-1.243-.519L384.4,117.087l-67.94-.133h-.036l-4.815-.012h-.036l-35.7-.072c1.388-1.195,2.824-2.353,4.284-3.5h.012l34.767.06h.036l4.815.012h.036l65.31.133a1.756,1.756,0,0,1,1.231.519l36.058,36.058h30.821a1.751,1.751,0,0,1,1.75,1.75" transform="translate(209.639 1022.349)" fill="#44a6ad"/>
    <path id="Path_62" data-name="Path 62" d="M354.32,149.464a1.751,1.751,0,0,0,1.241-.514l12.276-12.276a1.755,1.755,0,0,0-2.482-2.482l-11.761,11.762H300.639a1.755,1.755,0,1,0,0,3.51Z" transform="translate(214.397 1026.548)" fill="#242d50"/>
    <path id="Path_63" data-name="Path 63" d="M257.878,153.181a1.755,1.755,0,1,0,0,3.51h26.33a1.754,1.754,0,0,0,1.267-.541l50.493-52.664a1.755,1.755,0,0,0-2.534-2.429L283.46,153.181Z" transform="translate(205.556 1019.692)" fill="#44a6ad"/>
    <path id="Path_64" data-name="Path 64" d="M360.079,100.346a1.755,1.755,0,1,0,0-3.511h-26.33a1.754,1.754,0,0,0-1.267.541L281.989,150.04a1.755,1.755,0,0,0,2.534,2.429L334.5,100.346Z" transform="translate(210.803 1018.931)" fill="#44a6ad"/>
    <path id="Path_65" data-name="Path 65" d="M473.488,55.432a1.761,1.761,0,0,1-1.762,1.75H424.481L388.423,93.24a1.757,1.757,0,0,1-1.231.519l-118.214.229-3.065-3.5,120.543-.241,36.058-36.058a1.714,1.714,0,0,1,1.243-.519h47.969a1.764,1.764,0,0,1,1.762,1.762" transform="translate(207.58 1010.006)" fill="#0078bb"/>
    <path id="Path_66" data-name="Path 66" d="M375.719,37.97a1.772,1.772,0,0,1-1.762,1.762h-90.41c-.29-.314-.591-.64-.917-.99L282.5,38.6c-.676-.724-1.4-1.533-2.184-2.377h93.644a1.761,1.761,0,0,1,1.762,1.75" transform="translate(210.558 1006.398)" fill="#1b2850"/>
    <path id="Path_67" data-name="Path 67" d="M354.32,53.671H300.639a1.755,1.755,0,1,0,0,3.51h52.955l11.761,11.762a1.755,1.755,0,1,0,2.482-2.482L355.561,54.185a1.751,1.751,0,0,0-1.241-.514" transform="translate(214.397 1010.006)" fill="#242d50"/>
    <path id="Path_68" data-name="Path 68" d="M428.418,153.529a7.022,7.022,0,1,0-7.022-7.022,7.03,7.03,0,0,0,7.022,7.022m0-10.533a3.511,3.511,0,1,1-3.51,3.51,3.515,3.515,0,0,1,3.51-3.51" transform="translate(239.728 1027.749)" fill="#1b2850"/>
    <path id="Path_69" data-name="Path 69" d="M368.1,99.775h94.977a1.755,1.755,0,1,0,0-3.51H368.1Z" transform="translate(228.707 1018.813)" fill="#1b2850"/>
    <path id="Path_70" data-name="Path 70" d="M452.367,105.944a7.022,7.022,0,1,0-7.021-7.022,7.029,7.029,0,0,0,7.021,7.022m0-10.533a3.511,3.511,0,1,1-3.511,3.51,3.514,3.514,0,0,1,3.511-3.51" transform="translate(244.68 1017.91)" fill="#0078bb"/>
    <path id="Path_71" data-name="Path 71" d="M359.241,140.232a7.022,7.022,0,1,0-7.021-7.022,7.029,7.029,0,0,0,7.021,7.022m0-10.533a3.511,3.511,0,1,1-3.511,3.51,3.515,3.515,0,0,1,3.511-3.51" transform="translate(225.425 1025)" fill="#0078bb"/>
    <path id="Path_72" data-name="Path 72" d="M297.178,153.529a7.022,7.022,0,1,0-7.021-7.022,7.029,7.029,0,0,0,7.021,7.022m0-10.533a3.511,3.511,0,1,1-3.51,3.51,3.514,3.514,0,0,1,3.51-3.51" transform="translate(212.593 1027.749)" fill="#0078bb"/>
    <path id="Path_73" data-name="Path 73" d="M442.031,63.351a7.022,7.022,0,1,0-7.022-7.022,7.029,7.029,0,0,0,7.022,7.022m0-10.533a3.511,3.511,0,1,1-3.51,3.51,3.515,3.515,0,0,1,3.51-3.51" transform="translate(242.542 1009.104)" fill="#0078bb"/>
    <path id="Path_74" data-name="Path 74" d="M260.86,1.827a1.755,1.755,0,1,0-2.482,2.482l3.681,3.682a1.761,1.761,0,0,0,1.242.514H396.709a1.755,1.755,0,1,0,0-3.51H264.028Z" transform="translate(205.916 999.181)" fill="#1b2850"/>
    <path id="Path_75" data-name="Path 75" d="M378.486,0a7.021,7.021,0,0,0-6.794,5.261,6.6,6.6,0,0,0-.229,1.762,6.448,6.448,0,0,0,.229,1.75A7.02,7.02,0,1,0,378.486,0m0,10.535A3.512,3.512,0,1,1,382,7.023a3.523,3.523,0,0,1-3.512,3.512" transform="translate(229.404 998.909)" fill="#0078bb"/>
    <path id="Path_76" data-name="Path 76" d="M352.456,91.9a7.022,7.022,0,1,0,7.022,7.022,7.03,7.03,0,0,0-7.022-7.022m0,10.533a3.511,3.511,0,1,1,3.511-3.51,3.514,3.514,0,0,1-3.511,3.51" transform="translate(224.022 1017.91)" fill="#1b2850"/>
    <path id="Path_77" data-name="Path 77" d="M397.873,39.44h0a1.753,1.753,0,0,1-2.482,0L378.626,22.7l-50.554-.278a1.761,1.761,0,0,1-1.75-1.761v-.013a1.737,1.737,0,0,1,1.762-1.738l51.278.278a1.792,1.792,0,0,1,1.231.519l17.276,17.254a1.753,1.753,0,0,1,0,2.476" transform="translate(220.071 1002.819)" fill="#44a6ad"/>
    <path id="Path_78" data-name="Path 78" d="M419.8,41.449v.024a1.759,1.759,0,0,1-1.738,1.762l-26.621.278a1.731,1.731,0,0,1-1.255-.507L378.726,31.55a1.753,1.753,0,0,1,2.48-2.48L392.137,40l25.885-.278a1.751,1.751,0,0,1,1.774,1.726" transform="translate(230.799 1004.813)" fill="#44a6ad"/>
    <path id="Path_79" data-name="Path 79" d="M324.614,28.589a7.022,7.022,0,1,0-7.021-7.022,7.03,7.03,0,0,0,7.021,7.022m0-10.533a3.51,3.51,0,1,1-3.511,3.51,3.515,3.515,0,0,1,3.511-3.51" transform="translate(218.266 1001.917)" fill="#1b2850"/>
    <path id="Path_80" data-name="Path 80" d="M416.781,47.485a7.022,7.022,0,1,0-7.021-7.022,7.03,7.03,0,0,0,7.021,7.022m0-10.533a3.511,3.511,0,1,1-3.51,3.51,3.514,3.514,0,0,1,3.51-3.51" transform="translate(237.322 1005.823)" fill="#0078bb"/>
    <path id="Path_81" data-name="Path 81" d="M356.459,38.873a7.022,7.022,0,1,0,7.022-7.022,7.03,7.03,0,0,0-7.022,7.022m10.533,0a3.511,3.511,0,1,1-3.51-3.51,3.515,3.515,0,0,1,3.51,3.51" transform="translate(226.302 1005.495)" fill="#fff"/>
    <path id="Path_82" data-name="Path 82" d="M363.481,31.852a7.022,7.022,0,1,0,7.022,7.022,7.03,7.03,0,0,0-7.022-7.022m0,10.533a3.51,3.51,0,1,1,3.51-3.51,3.515,3.515,0,0,1-3.51,3.51" transform="translate(226.302 1005.495)" fill="#242d50"/>
    <path id="Path_83" data-name="Path 83" d="M359.241,62.6a7.022,7.022,0,1,0,7.022,7.022,7.029,7.029,0,0,0-7.022-7.022m0,10.533a3.51,3.51,0,1,1,3.511-3.51,3.515,3.515,0,0,1-3.511,3.51" transform="translate(225.425 1011.853)" fill="#44a6ad"/>
    <path id="Path_84" data-name="Path 84" d="M297.178,63.351a7.022,7.022,0,1,0-7.021-7.022,7.029,7.029,0,0,0,7.021,7.022m0-10.533a3.511,3.511,0,1,1-3.51,3.51,3.514,3.514,0,0,1,3.51-3.51" transform="translate(212.593 1009.104)" fill="#1b2850"/>
    <path id="Path_85" data-name="Path 85" d="M296.75,130.347l.5.589a7.923,7.923,0,0,0-.687.5c-.343.258-.687.515-.711.552-2.723,2.061-5.385,4.183-7.986,6.391q-2.061,1.748-4.048,3.57a140.033,140.033,0,0,0-20.6,23.073c-5.2,7.372-10.574,16.781-10.574,26.128,0,.123-.061.184-.135.184a.18.18,0,0,1-.159-.147c-1.717-5.655-11.972-20.608-22.178-34.665-1.656-2.269-3.287-4.514-4.906-6.685-3.852-5.238-7.507-10.071-10.439-13.935-2.38-3.128-4.281-5.606-5.459-7.127-.846-1.1-1.313-1.705-1.313-1.705l33-31.194,1.816-1.73,4.526-4.281L218.023,59.3l-1.2-1.251-8.169-8.5A202.315,202.315,0,0,0,226.978,32.9c.552-.564,1.128-1.141,1.7-1.73a273.628,273.628,0,0,0,22.1-25.747c.429-.577.859-1.153,1.276-1.73.209-.258.4-.515.589-.785.086.1.331.368.7.785s.92,1.006,1.57,1.73c4.342,4.784,14.18,15.517,23.552,25.747.54.577,1.067,1.141,1.595,1.73,3.545,3.864,6.98,7.605,9.973,10.868,1.165,1.276,2.257,2.466,3.263,3.57.773.834,1.484,1.619,2.147,2.343.589.626,1.116,1.2,1.595,1.717,1.84,2.012,2.932,3.2,2.932,3.2L277.651,75.1l-7.556,6.943-8.623,7.912,3.668,4.2,1.509,1.73,5.876,6.734,3.116,3.557Z" transform="translate(194.129 996.455)" fill="#242d50"/>
  </g>
</svg>
