<?xml version="1.0" encoding="UTF-8"?>
<svg id="b" data-name="Layer 2" xmlns="http://www.w3.org/2000/svg" width="148.848" height="58.883" viewBox="0 0 148.848 58.883">
  <g id="c" data-name="UI Shell - Footer">
    <g>
      <path id="d" data-name="Path 26472" d="M132.838,31.763c-.477-.267-.979-.486-1.5-.652-1.328-.418-2.735-.524-4.111-.308-.604.098-1.198.249-1.775.453-.063.016-.124.04-.181.072-.308.127-.634.254-.942.417-.272.145-.543.29-.8.453-.624.371-1.223.782-1.793,1.231-.468-3.173-.529-6.392-.181-9.58,0-.01.008-.018.018-.018h0c1.431.906,1.014,3.4.724,4.111,0,.01.008.018.018.018h0c1.203-1.392,1.419-3.383.543-5,0-.01.008-.018.018-.018h0c.238.189.451.409.634.652.467.613.745,1.35.8,2.119.027.319.027.641,0,.96,0,.072-.018.145-.018.217q0,.018.018.018h.018c.596-1.18.589-2.575-.018-3.749-.214-.402-.483-.773-.8-1.1-.109-.109-.2-.2-.326-.308-.018-.018,0-.036.018-.018.106.019.209.05.308.091.904.316,1.612,1.031,1.92,1.938.175.437.262.905.254,1.376,0,.018.018.018.036,0,.31-.94.204-1.968-.29-2.825-.284-.445-.669-.818-1.123-1.087-.252-.151-.52-.273-.8-.362-.145-.036-.272-.072-.38-.091-.018,0-.018-.018,0-.036.126-.015.253-.021.38-.018.269-.005.537.019.8.073.403.067.786.222,1.123.453.31.213.57.491.761.815,0,.018.036,0,.018-.018-.055-.588-.334-1.133-.779-1.521-.33-.273-.712-.477-1.123-.6-.261-.071-.53-.107-.8-.109-.342-.009-.683.053-1,.181-.01,0-.018-.008-.018-.018h0c.247-.348.604-.603,1.014-.724.258-.083.53-.114.8-.091.226.011.447.066.652.163.01,0,.018-.008.018-.018h0c-.188-.221-.415-.405-.67-.543-.244-.144-.518-.231-.8-.254-.779-.09-1.538.286-1.938.96,0,0-.018.018-.018,0-.091-.163-.181-.344-.272-.543-.21-.467-.356-.961-.435-1.467,0-.018-.018-.018-.018,0-.095.502-.241.994-.435,1.467-.091.2-.181.381-.272.543,0,.018-.018,0-.018,0-.605-.973-1.884-1.27-2.857-.665-.22.137-.412.313-.566.52-.018.018,0,.036.018.018.883-.368,1.903-.092,2.481.67q0,.018-.018.018c-1.126-.409-2.388-.092-3.187.8-.296.355-.479.79-.525,1.25,0,.01.008.018.018.018h0c.129-.23.294-.438.489-.616.72-.586,1.656-.837,2.572-.688.018,0,.018.018,0,.036-1.155.202-2.125.981-2.572,2.065-.261.742-.274,1.55-.036,2.3,0,.018.018.018.018,0v-.054c-.027-1.556,1.001-2.933,2.5-3.35.01,0,.018.008.018.018h0c-1.549,1.237-2.024,3.387-1.141,5.161,0,.018.036,0,.018,0-.264-1.483.281-2.994,1.431-3.966.018-.018.036,0,.018.018-.876,1.617-.66,3.608.543,5,.018.018.036,0,.018-.018-.29-.724-.688-3.224.724-4.111.01,0,.018.008.018.018h0c.338,3.195.278,6.42-.181,9.6-1.079-.863-2.274-1.57-3.55-2.1-.142-.056-.287-.105-.435-.145-1.078-.362-2.214-.522-3.35-.471-1.2.054-2.376.349-3.459.869-.127.072-.254.127-.344.181-.036.018-.018.072.036.054.109-.036.2-.054.308-.091,1.123-.323,2.295-.439,3.459-.344,1.159.113,2.292.418,3.35.905,1.441.676,2.781,1.548,3.984,2.59-1.255,1.216-2.586,2.352-3.984,3.4-.036.018-.09.054-.127.073-.213-.309-.596-.453-.96-.362-.346.078-.619.344-.706.688-.072.28-.004.578.181.8.426.427,1.082.523,1.612.235,1.177-.489,2.626-2.047,4.4-3.677.145-.145.308-.272.453-.417.145.127.308.272.453.417.815.743,1.557,1.467,2.228,2.083.272.254.543.489.8.706.348.295.724.556,1.123.779.531.391,1.26.377,1.775-.036.036-.018.054-.054.091-.073.166-.231.231-.52.181-.8-.033-.178-.125-.339-.262-.457-.123-.113-.273-.194-.435-.236-.364-.091-.747.053-.96.362-.132-.069-.259-.148-.38-.235-.393-.279-.768-.581-1.123-.906-.254-.217-.525-.471-.8-.724-.543-.507-1.159-1.05-1.793-1.612.574-.483,1.173-.936,1.793-1.358.272-.181.525-.344.8-.507.362-.217.743-.417,1.123-.6.573-.273,1.167-.502,1.775-.684,1.335-.388,2.739-.474,4.111-.254.497.076.988.191,1.467.344.109-.072.145-.127.109-.145" fill="#fff"/>
      <rect id="e" data-name="Rectangle 20769" x="118.928" y="54.27" width="3.821" height="3.821" transform="translate(-4.333 101.9) rotate(-45)" fill="#fff"/>
      <rect id="f" data-name="Rectangle 20770" x="98.523" y="38.41" width="3.169" height="3.169" transform="translate(31.127 122.837) rotate(-71.994)" fill="#fff"/>
      <rect id="g" data-name="Rectangle 20771" x="107.64" y="11.764" width="2.627" height="2.627" transform="translate(79.043 118.658) rotate(-81.027)" fill="#fff"/>
      <rect id="h" data-name="Rectangle 20772" x="139.745" y="28.142" width="2.626" height="2.626" transform="translate(20.487 108.37) rotate(-45)" fill="#fff"/>
      <rect id="i" data-name="Rectangle 20773" x="138.759" y="21.887" width="2.626" height="2.626" transform="translate(55.817 137.478) rotate(-63.004)" fill="#fff"/>
      <rect id="j" data-name="Rectangle 20774" x="107.653" y="44.492" width="2.627" height="2.627" transform="translate(-5.81 17.555) rotate(-8.973)" fill="#fff"/>
      <rect id="k" data-name="Rectangle 20775" x="131.411" y="11.767" width="2.627" height="2.627" transform="translate(-.416 20.86) rotate(-8.973)" fill="#fff"/>
      <rect id="l" data-name="Rectangle 20776" x="113.27" y="47.35" width="2.626" height="2.626" transform="translate(-9.604 57.315) rotate(-26.996)" fill="#fff"/>
      <rect id="m" data-name="Rectangle 20777" x="119.524" y="7.909" width="2.626" height="2.626" transform="translate(28.872 88.146) rotate(-45)" fill="#fff"/>
      <rect id="n" data-name="Rectangle 20778" x="116.995" y="11.004" width="2.173" height="2.173" transform="translate(38.877 100.5) rotate(-53.989)" fill="#fff"/>
      <rect id="o" data-name="Rectangle 20779" x="122.501" y="45.735" width="2.173" height="2.173" transform="translate(13.052 119.265) rotate(-53.989)" fill="#fff"/>
      <rect id="p" data-name="Rectangle 20780" x="104.084" y="20.374" width="2.173" height="2.173" transform="translate(-1.485 33.546) rotate(-17.998)" fill="#fff"/>
      <rect id="q" data-name="Rectangle 20781" x="135.419" y="36.347" width="2.173" height="2.173" transform="translate(-4.887 44.01) rotate(-17.998)" fill="#fff"/>
      <rect id="r" data-name="Rectangle 20782" x="102.382" y="31.121" width="2.173" height="2.173" transform="translate(16.583 96.969) rotate(-53.989)" fill="#fff"/>
      <rect id="s" data-name="Rectangle 20783" x="144.367" y="35.798" width="3.821" height="3.821" transform="translate(-1.173 70.534) rotate(-27.006)" fill="#fff"/>
      <rect id="t" data-name="Rectangle 20784" x="103.209" y="49.174" width="3.822" height="3.822" transform="translate(-6.681 17.02) rotate(-8.973)" fill="#fff"/>
      <rect id="u" data-name="Rectangle 20785" x="134.651" y="5.908" width="3.822" height="3.822" transform="translate(.452 21.394) rotate(-8.973)" fill="#fff"/>
      <rect id="v" data-name="Rectangle 20786" x="96.284" y="31.488" width="3.169" height="3.169" transform="translate(13.576 92.795) rotate(-53.989)" fill="#fff"/>
      <rect id="w" data-name="Rectangle 20787" x="113.278" y="8.907" width="2.626" height="2.626" transform="translate(53.469 107.686) rotate(-63.004)" fill="#fff"/>
      <rect id="x" data-name="Rectangle 20788" x="100.293" y="21.889" width="2.626" height="2.626" transform="translate(.539 48.65) rotate(-26.996)" fill="#fff"/>
      <rect id="y" data-name="Rectangle 20789" x="119.526" y="48.348" width="2.626" height="2.626" transform="translate(.277 99.991) rotate(-45)" fill="#fff"/>
      <rect id="z" data-name="Rectangle 20790" x="135.416" y="20.378" width="2.173" height="2.173" transform="translate(73.911 144.655) rotate(-72.002)" fill="#fff"/>
      <rect id="aa" data-name="Rectangle 20791" x="107.321" y="40.8" width="2.173" height="2.173" fill="#fff"/>
      <rect id="ab" data-name="Rectangle 20792" x="93.506" y="19.262" width="3.821" height="3.821" transform="translate(.79 45.636) rotate(-27.006)" fill="#fff"/>
      <rect id="ac" data-name="Rectangle 20793" x="93.509" y="35.794" width="3.821" height="3.821" transform="translate(18.498 105.599) rotate(-62.994)" fill="#fff"/>
      <rect id="ad" data-name="Rectangle 20794" x="108.707" y="7.151" width="3.169" height="3.169" transform="translate(67.891 110.926) rotate(-71.994)" fill="#fff"/>
      <rect id="ae" data-name="Rectangle 20795" x="129.821" y="48.587" width="3.169" height="3.169" transform="translate(43.072 159.633) rotate(-71.994)" fill="#fff"/>
      <rect id="af" data-name="Rectangle 20796" x="139.969" y="38.398" width="3.169" height="3.169" transform="translate(-5.427 45.715) rotate(-18.006)" fill="#fff"/>
      <rect id="ag" data-name="Rectangle 20797" x="142.215" y="31.493" width="3.169" height="3.169" transform="translate(8.031 90.866) rotate(-36.011)" fill="#fff"/>
      <rect id="ah" data-name="Rectangle 20798" x="139.98" y="17.312" width="3.169" height="3.169" transform="translate(79.834 147.687) rotate(-71.994)" fill="#fff"/>
      <rect id="ai" data-name="Rectangle 20799" x="135.7" y="11.425" width="3.169" height="3.169" fill="#fff"/>
      <rect id="aj" data-name="Rectangle 20800" x="108.7" y="48.575" width="3.169" height="3.169" transform="translate(-10.104 36.548) rotate(-18.006)" fill="#fff"/>
      <rect id="ak" data-name="Rectangle 20801" x="122.898" y="50.823" width="3.169" height="3.169" transform="translate(8.902 122.291) rotate(-53.989)" fill="#fff"/>
      <rect id="al" data-name="Rectangle 20802" x="100.297" y="34.388" width="2.626" height="2.626" transform="translate(23.676 110.034) rotate(-63.004)" fill="#fff"/>
      <rect id="am" data-name="Rectangle 20803" x="107.321" y="15.934" width="2.173" height="2.173" fill="#fff"/>
      <rect id="an" data-name="Rectangle 20804" x="102.376" y="25.605" width="2.173" height="2.173" transform="translate(4.078 65.93) rotate(-36.011)" fill="#fff"/>
      <rect id="ao" data-name="Rectangle 20805" x="127.738" y="12.691" width="2.173" height="2.173" transform="translate(2.047 40.479) rotate(-17.998)" fill="#fff"/>
      <rect id="ap" data-name="Rectangle 20806" x="122.495" y="10.986" width="2.173" height="2.173" transform="translate(16.517 74.965) rotate(-36.011)" fill="#fff"/>
      <rect id="aq" data-name="Rectangle 20807" x="132.314" y="37.548" width="1.793" height="1.793" transform="translate(-4.366 21.246) rotate(-8.973)" fill="#fff"/>
      <rect id="ar" data-name="Rectangle 20808" x="135.222" y="28.542" width="1.793" height="1.793" transform="translate(19.052 104.872) rotate(-45)" fill="#fff"/>
      <rect id="as" data-name="Rectangle 20809" x="144.361" y="19.269" width="3.821" height="3.821" transform="translate(60.982 141.884) rotate(-62.994)" fill="#fff"/>
      <rect id="at" data-name="Rectangle 20810" x="135.7" y="44.295" width="3.169" height="3.169" fill="#fff"/>
      <rect id="au" data-name="Rectangle 20811" x="98.538" y="17.301" width="3.169" height="3.169" transform="translate(-.934 31.875) rotate(-18.006)" fill="#fff"/>
      <rect id="av" data-name="Rectangle 20812" x="129.812" y="7.15" width="3.169" height="3.169" transform="translate(3.735 41.045) rotate(-18.006)" fill="#fff"/>
      <rect id="aw" data-name="Rectangle 20813" x="115.608" y="4.888" width="3.169" height="3.169" transform="translate(43.055 97.465) rotate(-53.989)" fill="#fff"/>
      <rect id="ax" data-name="Rectangle 20814" x="138.756" y="34.382" width="2.626" height="2.626" transform="translate(-.941 67.471) rotate(-26.996)" fill="#fff"/>
      <rect id="ay" data-name="Rectangle 20815" x="99.305" y="28.143" width="2.626" height="2.626" transform="translate(8.642 79.775) rotate(-45)" fill="#fff"/>
      <rect id="az" data-name="Rectangle 20816" x="137.113" y="31.106" width="2.173" height="2.173" transform="translate(7.481 87.404) rotate(-36.011)" fill="#fff"/>
      <rect id="ba" data-name="Rectangle 20817" x="111.783" y="44.021" width="2.173" height="2.173" transform="translate(-8.414 37.082) rotate(-17.998)" fill="#fff"/>
      <rect id="bb" data-name="Rectangle 20818" x="119.946" y="43.839" width="1.793" height="1.793" transform="translate(3.761 98.551) rotate(-45)" fill="#fff"/>
      <rect id="bc" data-name="Rectangle 20819" x="110.941" y="16.182" width="1.793" height="1.793" transform="translate(77.525 124.885) rotate(-81.027)" fill="#fff"/>
      <rect id="bd" data-name="Rectangle 20820" x="105.402" y="33.268" width="1.793" height="1.793" transform="translate(27.591 113.358) rotate(-62.994)" fill="#fff"/>
      <rect id="be" data-name="Rectangle 20821" x="102.812" y="11.425" width="3.169" height="3.169" fill="#fff"/>
      <rect id="bf" data-name="Rectangle 20822" x="122.89" y="4.885" width="3.169" height="3.169" transform="translate(19.982 74.419) rotate(-36.011)" fill="#fff"/>
      <rect id="bg" data-name="Rectangle 20823" x="125.763" y="47.362" width="2.626" height="2.626" transform="translate(26.021 139.81) rotate(-63.004)" fill="#fff"/>
      <rect id="bh" data-name="Rectangle 20824" x="103.176" y="40.008" width="2.627" height="2.627" transform="translate(47.377 138.087) rotate(-81.027)" fill="#fff"/>
      <rect id="bi" data-name="Rectangle 20825" x="135.881" y="16.244" width="2.627" height="2.627" transform="translate(98.455 150.335) rotate(-81.027)" fill="#fff"/>
      <rect id="bj" data-name="Rectangle 20826" x="132.187" y="40.8" width="2.173" height="2.173" fill="#fff"/>
      <rect id="bk" data-name="Rectangle 20827" x="137.113" y="25.615" width="2.173" height="2.173" transform="translate(35.348 122.794) rotate(-53.989)" fill="#fff"/>
      <rect id="bl" data-name="Rectangle 20828" x="117.009" y="45.711" width="2.173" height="2.173" transform="translate(-4.947 78.375) rotate(-36.011)" fill="#fff"/>
      <rect id="bm" data-name="Rectangle 20829" x="115.215" y="14.002" width="1.793" height="1.793" transform="translate(50.113 111.583) rotate(-62.994)" fill="#fff"/>
      <rect id="bn" data-name="Rectangle 20830" x="124.671" y="43.081" width="1.793" height="1.793" transform="translate(29.367 135.883) rotate(-62.994)" fill="#fff"/>
      <rect id="bo" data-name="Rectangle 20831" x="128.917" y="40.908" width="1.793" height="1.793" transform="translate(68.274 163.51) rotate(-81.027)" fill="#fff"/>
      <rect id="bp" data-name="Rectangle 20832" x="105.403" y="23.812" width="1.793" height="1.793" transform="translate(.371 50.963) rotate(-27.006)" fill="#fff"/>
      <rect id="bq" data-name="Rectangle 20833" x="134.491" y="33.262" width="1.793" height="1.793" transform="translate(-.748 65.202) rotate(-27.006)" fill="#fff"/>
      <rect id="br" data-name="Rectangle 20834" x="107.575" y="37.524" width="1.793" height="1.793" transform="translate(53.603 139.573) rotate(-81.027)" fill="#fff"/>
      <rect id="bs" data-name="Rectangle 20835" x="128.926" y="16.177" width="1.793" height="1.793" transform="translate(-1.074 20.456) rotate(-8.973)" fill="#fff"/>
      <rect id="bt" data-name="Rectangle 20836" x="115.222" y="43.079" width="1.793" height="1.793" transform="translate(-7.307 57.522) rotate(-27.006)" fill="#fff"/>
      <rect id="bu" data-name="Rectangle 20837" x="103.207" y="5.892" width="3.822" height="3.822" transform="translate(81.016 110.418) rotate(-81.027)" fill="#fff"/>
      <rect id="bv" data-name="Rectangle 20838" x="134.642" y="49.151" width="3.822" height="3.822" transform="translate(64.818 177.98) rotate(-81.027)" fill="#fff"/>
      <rect id="bw" data-name="Rectangle 20839" x="118.928" y=".791" width="3.821" height="3.821" transform="translate(33.482 86.237) rotate(-45)" fill="#fff"/>
      <rect id="bx" data-name="Rectangle 20840" x="96.294" y="24.225" width="3.169" height="3.169" transform="translate(3.529 62.478) rotate(-36.011)" fill="#fff"/>
      <rect id="by" data-name="Rectangle 20841" x="142.223" y="24.224" width="3.169" height="3.169" transform="translate(38.381 126.962) rotate(-53.989)" fill="#fff"/>
      <rect id="bz" data-name="Rectangle 20842" x="102.812" y="44.295" width="3.169" height="3.169" fill="#fff"/>
      <rect id="ca" data-name="Rectangle 20843" x="115.619" y="50.831" width="3.169" height="3.169" transform="translate(-8.421 78.924) rotate(-36.011)" fill="#fff"/>
      <rect id="cb" data-name="Rectangle 20844" x="131.419" y="44.49" width="2.627" height="2.627" transform="translate(66.788 169.768) rotate(-81.027)" fill="#fff"/>
      <rect id="cc" data-name="Rectangle 20845" x="103.176" y="16.241" width="2.627" height="2.627" transform="translate(-1.459 16.511) rotate(-8.973)" fill="#fff"/>
      <rect id="cd" data-name="Rectangle 20846" x="135.886" y="40.021" width="2.627" height="2.627" transform="translate(-4.768 21.904) rotate(-8.973)" fill="#fff"/>
      <rect id="ce" data-name="Rectangle 20847" x="125.771" y="8.903" width="2.626" height="2.626" transform="translate(9.21 58.8) rotate(-26.996)" fill="#fff"/>
      <rect id="cf" data-name="Rectangle 20848" x="111.777" y="12.684" width="2.173" height="2.173" transform="translate(64.894 116.856) rotate(-72.002)" fill="#fff"/>
      <rect id="cg" data-name="Rectangle 20849" x="127.739" y="44.024" width="2.173" height="2.173" transform="translate(46.117 153.693) rotate(-72.002)" fill="#fff"/>
      <rect id="ch" data-name="Rectangle 20850" x="104.093" y="36.345" width="2.173" height="2.173" transform="translate(37.081 125.898) rotate(-72.002)" fill="#fff"/>
      <rect id="ci" data-name="Rectangle 20851" x="132.187" y="15.934" width="2.173" height="2.173" fill="#fff"/>
      <rect id="cj" data-name="Rectangle 20852" x="119.939" y="13.254" width="1.793" height="1.793" transform="translate(25.386 89.588) rotate(-45)" fill="#fff"/>
      <rect id="ck" data-name="Rectangle 20853" x="107.573" y="19.564" width="1.793" height="1.793" transform="translate(-1.864 17.168) rotate(-8.973)" fill="#fff"/>
      <rect id="cl" data-name="Rectangle 20854" x="104.637" y="28.549" width="1.793" height="1.793" transform="translate(10.089 83.248) rotate(-45)" fill="#fff"/>
      <rect id="cm" data-name="Rectangle 20855" x="134.481" y="23.812" width="1.793" height="1.793" transform="translate(51.891 134.104) rotate(-62.994)" fill="#fff"/>
      <rect id="cn" data-name="Rectangle 20856" x="132.301" y="19.548" width="1.793" height="1.793" transform="translate(92.229 148.824) rotate(-81.027)" fill="#fff"/>
      <rect id="co" data-name="Rectangle 20857" x="110.942" y="40.917" width="1.793" height="1.793" transform="translate(-5.153 17.954) rotate(-8.973)" fill="#fff"/>
      <rect id="cp" data-name="Rectangle 20858" x="124.673" y="13.991" width="1.793" height="1.793" transform="translate(6.932 58.642) rotate(-27.006)" fill="#fff"/>
      <path id="cq" data-name="Path 26473" d="M3.456,11.667C.963,11.667.026,10.501.026,8.667c-.077-1.71,1.247-3.159,2.957-3.236.15-.007.3-.003.45.012.919-.001,1.832.153,2.7.457v4.446h1.326v1.349H3.459l-.003-.028ZM2.244,3.046c.467,0,.846.379.846.846s-.379.846-.846.846c-.467,0-.846-.379-.846-.846-.001-.466.376-.845.842-.846h.004ZM4.485,7.002c-.384-.158-.797-.236-1.212-.229-.856.004-1.547.701-1.543,1.557,0,.061.004.121.011.181,0,1.166.572,1.807,1.921,1.807h.823v-3.316ZM4.302,3.046c.467,0,.846.379.846.846s-.379.846-.846.846c-.467,0-.846-.379-.846-.846-.001-.466.376-.845.842-.846h.004Z" fill="#fff"/>
      <path id="cr" data-name="Path 26474" d="M7.252,10.318h1.555v1.349h-1.555v-1.349Z" fill="#fff"/>
      <path id="cs" data-name="Path 26475" d="M8.624,10.318h1.555v1.349h-1.555v-1.349Z" fill="#fff"/>
      <path id="ct" data-name="Path 26476" d="M9.974,10.318h1.555v1.349h-1.555v-1.349Z" fill="#fff"/>
      <path id="cu" data-name="Path 26477" d="M10.843,10.318h1.555v1.349h-1.555v-1.349Z" fill="#fff"/>
      <path id="cv" data-name="Path 26478" d="M12.192,10.318h1.555v1.349h-1.555v-1.349Z" fill="#fff"/>
      <path id="cw" data-name="Path 26479" d="M13.564,10.318h1.555v1.349h-1.555v-1.349Z" fill="#fff"/>
      <path id="cx" data-name="Path 26480" d="M14.936,10.318h1.555v1.349h-1.555v-1.349Z" fill="#fff"/>
      <path id="cy" data-name="Path 26481" d="M16.285,10.318h1.555v1.349h-1.555v-1.349Z" fill="#fff"/>
      <path id="cz" data-name="Path 26482" d="M17.657,10.318h1.555v1.349h-1.555v-1.349Z" fill="#fff"/>
      <path id="da" data-name="Path 26483" d="M19.03,10.318h1.555v1.349h-1.555v-1.349Z" fill="#fff"/>
      <path id="db" data-name="Path 26484" d="M20.379,10.318h1.555v1.349h-1.555v-1.349Z" fill="#fff"/>
      <path id="dc" data-name="Path 26485" d="M21.751,10.318h1.555v1.349h-1.555v-1.349Z" fill="#fff"/>
      <path id="dd" data-name="Path 26486" d="M23.123,10.318h1.555v1.349h-1.555v-1.349Z" fill="#fff"/>
      <path id="de" data-name="Path 26487" d="M24.472,10.318h1.555v1.349h-1.555v-1.349Z" fill="#fff"/>
      <path id="df" data-name="Path 26488" d="M25.844,10.318h1.555v1.349h-1.555v-1.349Z" fill="#fff"/>
      <path id="dg" data-name="Path 26489" d="M26.439,10.982c0-.389.526-.663.778-.663h1.509v-4.711h1.692v4.711h1.326v1.349h-4.551c-.254,0-.754-.274-.754-.686ZM28.539,12.606c.467,0,.846.379.846.846,0,.467-.379.846-.846.846-.467,0-.846-.379-.846-.846-.008-.458.357-.836.816-.844.01,0,.02,0,.03,0v-.002ZM30.597,12.606c.467,0,.846.379.846.846,0,.467-.379.846-.846.846-.467,0-.846-.379-.846-.846-.008-.458.357-.836.816-.844.011,0,.023,0,.034,0l-.004-.002Z" fill="#fff"/>
      <path id="dh" data-name="Path 26490" d="M33.665,10.662c-.229.595-.755.983-1.829.983h-.274c-.252,0-.778-.252-.778-.663,0-.389.526-.663.778-.663h.091c.777,0,1.281-.435,1.281-1.761-.042-1.694,1.298-3.102,2.992-3.144.116-.003.232,0,.347.011,1.448-.158,2.75.887,2.908,2.335.023.212.021.427-.008.638v1.921h1.029v1.349h-3.659c-1.849,0-2.443-.412-2.878-1.006ZM37.53,8.604c0-1.281-.526-1.829-1.372-1.829-.856.004-1.547.701-1.543,1.557,0,.061.004.121.011.181,0,1.212.595,1.807,1.921,1.807h.983v-1.716Z" fill="#fff"/>
      <path id="di" data-name="Path 26491" d="M39.245,10.981c0-.389.526-.663.778-.663h1.509v-4.711h1.692v4.711h1.326v1.349h-4.551c-.228,0-.754-.274-.754-.686ZM42.378,3.046c.492,0,.891.4.892.892,0,.493-.398.893-.89.894-.493,0-.893-.398-.894-.89v-.004c.025-.482.41-.867.892-.892Z" fill="#fff"/>
      <path id="dj" data-name="Path 26492" d="M44.368,11.667c-.252,0-.778-.252-.778-.663,0-.389.526-.663.778-.663h1.509v-4.711h1.692v6.06h-3.2v-.023ZM45.648,3.046c.467,0,.846.379.846.846,0,.467-.379.846-.846.846-.467,0-.846-.379-.846-.846.007-.464.382-.839.846-.846ZM47.706,3.046c.467,0,.846.379.846.846,0,.467-.379.846-.846.846-.467,0-.846-.379-.846-.846.007-.464.382-.839.846-.846Z" fill="#fff"/>
      <path id="dk" data-name="Path 26493" d="M55.916,11.668c-1.9,0-2.424.64-2.424,1.418,0,.709.64,1.372,2.127,1.372l-.114,1.349c-2.515,0-3.7-1.1-3.7-2.607,0-1.624,1.212-2.859,4.162-2.859h.869c.046-.326.069-.654.069-.983,0-1.624-.663-2.47-2.516-2.47-.526,0-1.006.046-1.486.091v-1.326c.546-.074,1.096-.112,1.647-.114,2.9,0,4.048,1.281,4.048,3.75,0,.32-.023.663-.046,1.052h.8v1.349h-3.43l-.006-.022ZM56.762,12.514c.48,0,.869.389.869.869s-.389.869-.869.869-.869-.389-.869-.869h0c-.016-.464.348-.853.812-.869.019,0,.038,0,.057,0Z" fill="#fff"/>
      <path id="dl" data-name="Path 26494" d="M59.164,11.667c-.251,0-.778-.251-.778-.663,0-.389.526-.663.778-.663h.983c.247-.005.494.026.732.092-.539-.456-.814-1.151-.732-1.852-.043-1.694,1.297-3.103,2.991-3.145.116-.003.232,0,.348.011,1.448-.158,2.75.887,2.908,2.335.023.212.021.427-.008.638v3.247h-7.222ZM64.744,8.603c0-1.281-.526-1.829-1.372-1.829-.856.004-1.547.701-1.543,1.557,0,.061.004.121.011.181,0,1.212.595,1.807,1.921,1.807h.983v-1.716Z" fill="#fff"/>
      <path id="dm" data-name="Path 26495" d="M68.265,2.589h1.692v7.729h1.326v1.349h-3.018V2.589Z" fill="#fff"/>
      <path id="dn" data-name="Path 26496" d="M71.102,11.667c-.252,0-.778-.252-.778-.663,0-.389.5-.663.778-.663h1.509v-4.711h1.692v6.06h-3.2v-.023ZM73.457,3.046c.492,0,.891.4.892.892,0,.493-.398.893-.89.894-.493,0-.893-.398-.894-.89v-.004c.025-.482.41-.867.892-.892Z" fill="#fff"/>
      <path id="do" data-name="Path 26497" d="M74.531,14.801l.137-1.349c.341.105.695.159,1.052.16.869,0,1.4-.412,1.4-1.807v-6.2h1.692v4.711h1.319v1.349h-1.326v.046c0,1.647-.572,3.224-3.179,3.224-.369-.002-.736-.047-1.095-.134Z" fill="#fff"/>
      <path id="dp" data-name="Path 26498" d="M79.609,11.668c-.252,0-.778-.252-.778-.663,0-.389.5-.663.778-.663h1.509v-4.711h1.692v6.06h-3.2v-.023ZM81.896,12.514c.48,0,.869.389.869.869s-.389.869-.869.869-.869-.389-.869-.869h0c-.008-.472.367-.861.839-.869.01,0,.02,0,.029,0h0Z" fill="#fff"/>
      <path id="dq" data-name="Path 26499" d="M3.433,26.534C.94,26.534.003,25.368.003,23.534c-.077-1.71,1.247-3.159,2.957-3.236.15-.007.3-.003.45.012.919-.001,1.832.153,2.7.457v4.436h1.326v1.349H3.436l-.003-.018ZM2.198,17.934c.467,0,.846.379.846.846s-.379.846-.846.846c-.467,0-.846-.379-.846-.846.015-.463.388-.834.851-.846h-.005ZM4.439,21.89c-.384-.158-.797-.236-1.212-.229-.856.004-1.547.701-1.543,1.557,0,.061.004.121.011.181,0,1.166.572,1.807,1.921,1.807h.823v-3.316ZM4.256,17.934c.467,0,.846.379.846.846s-.379.846-.846.846c-.467,0-.846-.379-.846-.846.015-.461.386-.831.847-.846h-.001Z" fill="#fff"/>
      <path id="dr" data-name="Path 26500" d="M7.23,26.532c-.252,0-.778-.252-.778-.663,0-.389.526-.663.778-.663h1.509v-4.711h1.692v6.06h-3.2v-.023ZM7.642,27.47c.467,0,.846.379.846.846s-.379.846-.846.846c-.467,0-.846-.379-.846-.846.007-.464.381-.839.845-.846h.001ZM9.7,27.47c.467,0,.846.379.846.846s-.379.846-.846.846c-.467,0-.846-.379-.846-.846.007-.464.381-.839.845-.846h.001Z" fill="#fff"/>
      <path id="ds" data-name="Path 26501" d="M11.186,29.688l.137-1.349c.341.105.695.159,1.052.16.869,0,1.395-.412,1.395-1.806v-6.2h1.692v4.711h1.324v1.349h-1.326v.046c0,1.646-.572,3.224-3.179,3.224-.368-.015-.734-.06-1.095-.135Z" fill="#fff"/>
      <path id="dt" data-name="Path 26502" d="M22.414,25.64c-.402.678-1.16,1.061-1.944.983-.729.072-1.422-.334-1.715-1.006-.251.595-.777.892-1.715.892h-.457c-.252,0-.777-.252-.777-.663,0-.389.526-.663.777-.663h.457c.846,0,1.166-.343,1.166-1.6v-2.333h1.692v2.378c0,1.166.137,1.669.892,1.669.663,0,1.052-.389,1.052-1.647v-2.9h1.647v3.224c0,1.006.343,1.212,1.532,1.212h.343c.046-.526.069-1.143.069-1.555-.004-1.16-.127-2.317-.366-3.453l1.669-.229c.276,1.169.414,2.366.412,3.567,0,.526-.023,1.1-.046,1.669h1.281v1.349h-3.522c-1.395-.002-2.081-.185-2.447-.894ZM21.499,18.002c.466-.001.845.376.846.842v.004c-.007.464-.382.839-.846.846-.466.001-.845-.376-.846-.842v-.004c.015-.461.385-.831.846-.846h0ZM22.574,16.31c.467.002.844.382.843.849-.002.465-.378.841-.843.843-.458.009-.837-.355-.846-.814,0-.011,0-.022,0-.032.007-.464.382-.839.846-.846ZM23.626,18.002c.467,0,.846.379.846.846s-.379.846-.846.846c-.467,0-.846-.379-.846-.846.015-.461.385-.831.846-.846Z" fill="#fff"/>
      <path id="du" data-name="Path 26503" d="M28.155,26.532c-.252,0-.778-.252-.778-.663,0-.389.526-.663.778-.663h1.509v-4.711h1.692v4.711h1.326v1.349h-4.528v-.023ZM30.51,27.401c.48,0,.869.389.869.869s-.389.869-.869.869-.869-.389-.869-.869h0c-.023-.457.328-.846.785-.869.028-.001.056-.001.084,0Z" fill="#fff"/>
      <path id="dv" data-name="Path 26504" d="M32.5,26.532c-.252,0-.778-.252-.778-.663,0-.389.526-.663.778-.663h1.509v-7.753h1.692v9.079h-3.201Z" fill="#fff"/>
      <path id="dw" data-name="Path 26505" d="M37.782,17.453h1.692v9.079h-1.692v-9.079Z" fill="#fff"/>
      <path id="dx" data-name="Path 26506" d="M48.804,26.534c-3.5,0-4.734-1.464-4.734-3.819,0-.685.116-1.365.343-2.012l1.83-.3c-.291.672-.447,1.395-.457,2.127,0,1.807.778,2.676,3.2,2.676h1.738v-4.711h1.692v6.06h-3.613v-.021ZM47.569,17.934c.467,0,.846.379.846.846,0,.467-.379.846-.846.846-.467,0-.846-.379-.846-.846.015-.461.386-.831.847-.846h0ZM49.627,17.934c.467,0,.846.379.846.846,0,.467-.379.846-.846.846-.467,0-.846-.379-.846-.846.015-.461.385-.831.846-.846h0Z" fill="#fff"/>
      <path id="dy" data-name="Path 26507" d="M54.499,17.453h1.692v9.079h-1.692v-9.079Z" fill="#fff"/>
      <path id="dz" data-name="Path 26508" d="M56.42,29.688l.137-1.349c.341.105.695.159,1.052.16.869,0,1.395-.412,1.395-1.806v-6.2h1.692v6.106c0,1.646-.572,3.224-3.179,3.224-.369-.015-.736-.06-1.097-.135Z" fill="#fff"/>
      <path id="ea" data-name="Path 26509" d="M61.999,25.206h3.819c.047-1.801-1.26-3.352-3.042-3.613l.412-1.418c2.653.686,4.139,2.15,4.276,5.031h.732v1.349h-6.2l.003-1.349Z" fill="#fff"/>
      <path id="eb" data-name="Path 26510" d="M67.99,26.534c-.252,0-.777-.252-.777-.663,0-.389.5-.663.777-.663h.778c.268.004.535.027.8.069-.418-.479-.632-1.103-.594-1.738-.053-1.717,1.296-3.151,3.013-3.204.093-.003.187-.002.28.004,1.488-.169,2.831.9,3,2.387.023.204.023.409,0,.613.037.726-.238,1.433-.755,1.944.326-.04.654-.063.983-.069h.549v1.349h-8.05l-.004-.029ZM71.1,17.934c.467,0,.846.379.846.846,0,.467-.379.846-.846.846-.467,0-.846-.379-.846-.846-.001-.466.376-.845.842-.846h.005-.001ZM73.524,23.4c0-1.144-.457-1.761-1.418-1.761-.732,0-1.441.526-1.441,1.715,0,1.212.48,1.807,1.418,1.807.824.045,1.442-.549,1.442-1.761h-.001ZM73.158,17.934c.467,0,.846.379.846.846,0,.467-.379.846-.846.846-.467,0-.846-.379-.846-.846.007-.465.382-.84.847-.846h-.001Z" fill="#fff"/>
      <path id="ec" data-name="Path 26511" d="M75.835,26.532c-.252,0-.777-.252-.777-.663,0-.389.5-.663.777-.663h1.509v-7.753h1.692v9.079h-3.201Z" fill="#fff"/>
      <path id="ed" data-name="Path 26512" d="M81.118,17.453h1.692v9.079h-1.692v-9.079Z" fill="#fff"/>
      <path id="ee" data-name="Path 26513" d="M5.331,44.929v-3.179H1.809v3.179h-.937v-6.906h.938v2.927h3.522v-2.927h.938v6.906h-.939Z" fill="#fff"/>
      <path id="ef" data-name="Path 26514" d="M11.185,44.929c-.011-.361.02-.721.091-1.075h-.023c-.278.735-.999,1.206-1.784,1.166-1.006,0-1.532-.549-1.532-1.624v-3.545h.915v3.27c0,.755.3,1.144.869,1.144.42.006.812-.212,1.029-.572.288-.415.433-.913.412-1.418v-2.446h.915v5.1h-.892Z" fill="#fff"/>
      <path id="eg" data-name="Path 26515" d="M20.379,44.929v-3.27c0-.777-.274-1.166-.823-1.166-.399.007-.768.213-.983.549-.306.425-.459.941-.435,1.464v2.424h-.915v-3.27c0-.777-.274-1.166-.823-1.166-.411.006-.791.222-1.006.572-.285.425-.43.929-.412,1.441v2.424h-.915v-5.1h.892c.004.36-.019.719-.069,1.075h0c.263-.737.98-1.212,1.761-1.166.696-.085,1.329.411,1.414,1.107.001.012.003.024.004.036.263-.727.966-1.199,1.738-1.167,1.006,0,1.509.549,1.509,1.67v3.5h-.938v.043Z" fill="#fff"/>
      <path id="eh" data-name="Path 26516" d="M25.936,44.929c-.004-.336.012-.672.046-1.006h-.023c-.267.715-.977,1.165-1.738,1.1-.377.016-.746-.115-1.029-.366-.257-.262-.397-.616-.389-.983-.001-.545.31-1.043.8-1.281.702-.346,1.482-.503,2.264-.457v-.229c.027-.322-.053-.644-.229-.915-.221-.224-.533-.335-.846-.3-.532.004-1.056.129-1.532.366l-.183-.732c.579-.244,1.201-.368,1.829-.366,1.258,0,1.875.595,1.875,1.784v1.944c0,.526,0,1.029.023,1.464h-.869v-.023ZM25.89,42.551c-1.441,0-2.15.32-2.15.961-.01.204.065.402.206.549.145.161.356.245.572.229.39.007.759-.18.983-.5.249-.32.378-.716.366-1.121v-.114l.023-.004Z" fill="#fff"/>
      <path id="ei" data-name="Path 26517" d="M31.95,44.929v-3.27c0-.778-.3-1.144-.869-1.144-.419,0-.808.216-1.029.572-.285.417-.43.913-.412,1.418v2.424h-.914v-5.1h.892c.005.36-.018.719-.069,1.075h.023c.273-.739.997-1.213,1.784-1.166,1.029,0,1.532.549,1.532,1.624v3.545h-.938v.022Z" fill="#fff"/>
      <path id="ej" data-name="Path 26518" d="M41.669,44.654c-.602.249-1.248.373-1.9.366-.906.07-1.792-.285-2.4-.96-.532-.692-.792-1.554-.732-2.424-.055-.948.238-1.883.823-2.63.644-.729,1.59-1.117,2.561-1.052.533-.005,1.064.064,1.578.206l-.16.869c-.491-.178-1.009-.271-1.532-.275-.669-.036-1.313.264-1.715.8-.383.565-.568,1.24-.526,1.921,0,1.784.778,2.676,2.355,2.676.523.006,1.04-.112,1.509-.343l.139.846Z" fill="#fff"/>
      <path id="ek" data-name="Path 26519" d="M46.014,44.929c-.004-.336.012-.672.046-1.006h-.023c-.267.715-.977,1.165-1.738,1.1-.378.016-.746-.115-1.029-.366-.257-.262-.397-.616-.389-.983-.001-.545.31-1.043.8-1.281.702-.346,1.483-.503,2.264-.457v-.229c.027-.322-.054-.644-.229-.915-.221-.224-.533-.335-.846-.3-.532.004-1.056.129-1.532.366l-.183-.732c.579-.244,1.201-.368,1.829-.366,1.258,0,1.875.595,1.875,1.784v1.944c0,.526,0,1.029.023,1.464h-.869v-.023ZM45.945,42.551c-1.441,0-2.15.32-2.15.961-.01.204.065.402.206.549.145.161.356.245.572.229.39.007.759-.18.983-.5.249-.32.378-.716.366-1.121v-.114l.023-.004Z" fill="#fff"/>
      <path id="el" data-name="Path 26520" d="M52.413,44.266c-.502.514-1.204.781-1.921.732-.291.003-.582-.02-.869-.069v2.538h-.91v-7.615h.892c.012.345-.019.691-.092,1.029h.023c.247-.725.951-1.194,1.715-1.143.531-.029,1.042.201,1.372.618.353.525.522,1.153.48,1.784.047.77-.199,1.53-.69,2.126ZM51.018,40.516c-.442.003-.846.249-1.052.64-.23.394-.348.844-.343,1.3v1.669c.297.087.606.126.915.114,1.075,0,1.624-.686,1.624-2.058-.019-1.094-.385-1.665-1.139-1.665h-.005Z" fill="#fff"/>
      <path id="em" data-name="Path 26521" d="M57.403,44.929c-.004-.336.012-.672.046-1.006h-.023c-.267.715-.977,1.165-1.738,1.1-.377.016-.746-.115-1.029-.366-.257-.262-.397-.616-.389-.983-.001-.545.31-1.043.8-1.281.702-.346,1.483-.503,2.264-.457v-.229c.027-.322-.054-.644-.229-.915-.221-.224-.533-.335-.846-.3-.532.004-1.056.129-1.532.366l-.183-.732c.579-.244,1.201-.368,1.829-.366,1.258,0,1.875.595,1.875,1.784v1.944c0,.526,0,1.029.023,1.464h-.869v-.023ZM57.334,42.551c-1.441,0-2.15.32-2.15.961-.01.204.065.402.206.549.145.161.356.245.572.229.39.007.759-.18.983-.5.249-.32.378-.716.366-1.121v-.114l.023-.004Z" fill="#fff"/>
      <path id="en" data-name="Path 26522" d="M63.847,44.243c-.511.517-1.218.792-1.944.755-.593.006-1.185-.063-1.761-.206v-7.341h.915v2.47c.008.323-.022.645-.091.961h.023c.232-.716.917-1.186,1.669-1.144.538-.026,1.057.203,1.4.618.353.525.522,1.153.48,1.784.065.766-.184,1.525-.691,2.103ZM62.475,40.516c-.442.003-.846.249-1.052.64-.23.394-.348.844-.343,1.3v1.695c.297.087.606.126.915.114,1.075,0,1.624-.686,1.624-2.058-.019-1.12-.385-1.692-1.139-1.692h-.005Z" fill="#fff"/>
      <path id="eo" data-name="Path 26523" d="M66.893,38.663c-.25.213-.619.213-.869,0-.115-.107-.181-.255-.183-.412,0-.34.274-.616.614-.616.165,0,.322.065.438.182.119.113.186.27.183.434-.002.157-.068.305-.183.412ZM66.001,44.929v-5.1h.915v5.1h-.915Z" fill="#fff"/>
      <path id="ep" data-name="Path 26524" d="M68.929,44.929v-7.478h.915v7.478h-.915Z" fill="#fff"/>
      <path id="eq" data-name="Path 26525" d="M72.702,38.663c-.25.213-.619.213-.869,0-.115-.107-.181-.255-.183-.412,0-.34.274-.616.614-.616.165,0,.322.065.438.182.119.113.186.27.183.434-.002.157-.068.305-.183.412ZM71.81,44.929v-5.1h.915v5.1h-.915Z" fill="#fff"/>
      <path id="er" data-name="Path 26526" d="M77.184,44.906c-.338.076-.683.114-1.029.114-.39.04-.78-.084-1.075-.343-.225-.345-.33-.755-.3-1.166v-2.927h-1.049v-.707h1.052v-1.646l.915-.252v1.9h1.418v.709h-1.418v2.607c-.032.292.024.586.16.846.142.165.355.25.572.229.217.006.434-.025.64-.092l.114.728Z" fill="#fff"/>
      <path id="es" data-name="Path 26527" d="M80.482,45.363c-.198.642-.542,1.229-1.006,1.715-.388.334-.889.506-1.4.48-.2-.003-.4-.026-.595-.069l.092-.823c.201.056.408.086.617.091.572,0,1.029-.412,1.349-1.258l.206-.549-1.921-5.1h1.029l.96,2.653c.114.3.229.732.389,1.258h.023c.092-.343.252-.869.5-1.555l.823-2.333h1.006l-2.072,5.49Z" fill="#fff"/>
      <path id="et" data-name="Path 26528" d="M4.44,53.436c-.644.521-1.46.783-2.287.732-.206,0-.457,0-.778-.023-.32,0-.526-.023-.663-.023v-5.694l1.715-.046c1.944,0,2.9.937,2.9,2.813.056.842-.27,1.665-.887,2.241ZM2.34,49.068c-.137,0-.434,0-.846.023v4.391c.251.03.503.045.755.046.588.031,1.166-.157,1.624-.526.451-.443.685-1.062.64-1.692.172-1.062-.55-2.062-1.612-2.234-.187-.03-.377-.033-.565-.008h.004Z" fill="#fff"/>
      <path id="eu" data-name="Path 26529" d="M9.608,52.069h-2.744c-.023,1.029.412,1.532,1.326,1.532.409-.002.814-.088,1.189-.252l.114.595c-.459.18-.949.266-1.441.252-1.3,0-1.967-.709-1.967-2.149-.032-.562.146-1.117.5-1.555.342-.413.859-.642,1.395-.617.474-.038.939.147,1.258.5.27.345.408.775.389,1.212.005.161-.001.322-.019.482ZM8.876,51.543c.022-.289-.068-.576-.252-.8-.176-.19-.428-.291-.686-.275-.595,0-.938.366-1.029,1.075h1.967Z" fill="#fff"/>
      <path id="ev" data-name="Path 26530" d="M12.557,54.145h-.869l-1.532-4.185h.846l.892,2.561c.114.343.183.64.251.846h.023c.069-.274.137-.549.229-.846l.892-2.584h.8l-1.532,4.208Z" fill="#fff"/>
      <path id="ew" data-name="Path 26531" d="M18.024,52.069h-2.744c-.023,1.029.412,1.532,1.326,1.532.409-.002.814-.088,1.189-.252l.114.595c-.459.18-.949.266-1.441.252-1.3,0-1.967-.709-1.967-2.149-.032-.562.146-1.117.5-1.555.342-.413.859-.642,1.395-.617.474-.038.939.147,1.258.5.27.345.408.775.389,1.212.005.161-.001.322-.019.482ZM17.269,51.543c.022-.289-.068-.576-.252-.8-.176-.19-.428-.291-.686-.275-.595,0-.938.366-1.029,1.075h1.967Z" fill="#fff"/>
      <path id="ex" data-name="Path 26532" d="M19.121,54.145v-6.152h.755v6.151h-.755Z" fill="#fff"/>
      <path id="ey" data-name="Path 26533" d="M24.29,53.573c-.373.427-.919.662-1.486.64-1.258,0-1.875-.709-1.875-2.127-.023-.569.174-1.126.549-1.555.373-.427.919-.662,1.486-.64.496-.029.983.144,1.349.48.39.447.58,1.034.526,1.624.04.579-.158,1.149-.549,1.578ZM22.918,50.509c-.315-.006-.616.128-.823.366-.262.321-.393.729-.366,1.143,0,1.052.389,1.578,1.189,1.578.32.007.625-.137.823-.389.251-.343.373-.765.343-1.189,0-1.006-.389-1.509-1.166-1.51h0Z" fill="#fff"/>
      <path id="ez" data-name="Path 26534" d="M28.908,53.597c-.42.426-1.003.65-1.6.617-.237-.002-.474-.017-.709-.046v2.081h-.755v-6.289h.732c.007.284-.016.567-.069.846h.023c.212-.593.79-.975,1.418-.938.439-.024.863.161,1.143.5.301.426.447.943.412,1.464.027.642-.185,1.271-.595,1.765ZM27.765,50.51c-.362.012-.691.211-.869.526-.192.326-.296.697-.3,1.075v1.395c.244.077.499.115.755.114.892,0,1.326-.571,1.326-1.692.026-.959-.295-1.419-.912-1.419h0Z" fill="#fff"/>
      <path id="fa" data-name="Path 26535" d="M35.724,54.145v-2.7c0-.64-.229-.96-.686-.96-.324-.004-.627.16-.8.434-.259.349-.389.778-.366,1.212v1.992h-.755v-2.7c0-.64-.229-.96-.686-.96-.332.01-.639.18-.823.457-.239.349-.359.766-.343,1.189v1.99h-.755v-4.185h.732c.003.299-.02.597-.069.892h0c.222-.609.817-1,1.464-.961.333-.022.659.103.892.343.143.168.23.376.251.595.217-.602.802-.992,1.441-.961.823,0,1.258.457,1.258,1.372v2.881h-.755v.07Z" fill="#fff"/>
      <path id="fb" data-name="Path 26536" d="M41.052,52.069h-2.744c-.023,1.029.412,1.532,1.326,1.532.409-.002.814-.088,1.189-.252l.114.595c-.459.18-.949.266-1.441.252-1.3,0-1.967-.709-1.967-2.149-.032-.562.146-1.117.5-1.555.344-.415.862-.643,1.4-.617.474-.038.939.147,1.258.5.27.345.408.775.389,1.212,0,.157-.024.317-.024.482ZM40.297,51.543c.022-.289-.068-.576-.252-.8-.176-.19-.428-.291-.686-.275-.595,0-.938.366-1.029,1.075h1.967Z" fill="#fff"/>
      <path id="fc" data-name="Path 26537" d="M44.848,54.145v-2.7c0-.64-.229-.938-.709-.938-.346.003-.666.184-.846.48-.235.342-.356.751-.343,1.166v2.012h-.755v-4.185h.732c.005.299-.018.598-.069.892h.023c.222-.608.817-.999,1.464-.96.846,0,1.258.457,1.258,1.349v2.927h-.755v-.043Z" fill="#fff"/>
      <path id="fd" data-name="Path 26538" d="M49.056,54.122c-.277.068-.561.099-.846.092-.327.034-.652-.076-.892-.3-.184-.284-.265-.623-.229-.96v-2.4h-.869v-.594h.869v-1.349l.755-.206v1.578h1.166v.595h-1.166v2.15c-.025.237.023.476.137.686.123.132.3.199.48.183.178.001.355-.022.526-.069l.069.594Z" fill="#fff"/>
      <path id="fe" data-name="Path 26539" d="M54.568,51.469c-.434.383-1,.58-1.578.549-.176.004-.351-.003-.526-.023v2.15h-.778v-5.694c.5-.023.983-.046,1.418-.046.541-.028,1.074.134,1.509.457.352.302.546.749.526,1.212.036.528-.175,1.044-.571,1.395ZM53.036,49.069c-.191-.004-.382.003-.572.023v2.241c.197.028.396.043.595.046.869,0,1.281-.389,1.281-1.189-.001-.756-.436-1.122-1.305-1.122h0Z" fill="#fff"/>
      <path id="ff" data-name="Path 26540" d="M58.157,50.619c-.869-.16-1.3.458-1.3,1.83v1.692h-.758v-4.185h.732c.005.338-.026.675-.091,1.006h.023c.107-.692.748-1.17,1.441-1.075l-.047.732Z" fill="#fff"/>
      <path id="fg" data-name="Path 26541" d="M62,53.573c-.373.427-.919.662-1.486.64-1.258,0-1.875-.709-1.875-2.127-.023-.569.174-1.126.549-1.555.373-.427.919-.662,1.486-.64.496-.029.983.144,1.349.48.39.447.58,1.034.526,1.624.019.576-.177,1.138-.549,1.578ZM60.605,50.509c-.315-.006-.616.128-.823.366-.262.321-.393.729-.366,1.143,0,1.052.389,1.578,1.189,1.578.32.007.625-.137.823-.389.251-.343.373-.765.343-1.189,0-1.006-.389-1.509-1.166-1.51h0Z" fill="#fff"/>
      <path id="fh" data-name="Path 26542" d="M66.596,55.837c-.467.327-1.031.488-1.6.457-.449.024-.896-.088-1.281-.32-.313-.207-.495-.563-.48-.938-.002-.48.275-.917.709-1.12-.259-.092-.427-.343-.412-.618-.003-.306.177-.585.457-.709-.406-.233-.644-.676-.617-1.143-.006-.414.159-.812.457-1.1.362-.325.84-.49,1.326-.457.2.002.4.025.595.069h1.418v.595h-.686c.233.189.361.479.343.778.022.405-.137.799-.435,1.075-.369.312-.844.467-1.326.434-.148.001-.295-.022-.435-.069-.183.091-.275.206-.274.343,0,.206.229.32.709.32l.777.023c.938.046,1.418.435,1.418,1.212-.031.47-.276.9-.663,1.168ZM65.59,54.122l-.8-.023h-.256c-.311.164-.517.473-.549.823.001.239.121.462.32.595.241.146.519.217.8.206.345.013.687-.075.983-.252.215-.142.344-.383.343-.64.027-.458-.27-.686-.842-.709h.001ZM65.819,50.692c-.194-.174-.449-.265-.709-.252-.272-.016-.538.083-.732.274-.175.175-.267.416-.252.663,0,.617.32.915.983.915.257.016.51-.066.709-.229.183-.179.276-.431.252-.686.013-.253-.078-.501-.252-.686h.001Z" fill="#fff"/>
      <path id="fi" data-name="Path 26543" d="M70.278,50.619c-.869-.16-1.3.458-1.3,1.83v1.692h-.758v-4.185h.732c.005.338-.026.675-.091,1.006h.023c.107-.692.748-1.17,1.441-1.075l-.047.732Z" fill="#fff"/>
      <path id="fj" data-name="Path 26544" d="M73.456,54.146c-.003-.283.012-.565.046-.846h-.023c-.205.596-.791.974-1.418.915-.313.006-.616-.108-.846-.32-.215-.219-.331-.516-.32-.823,0-.449.258-.858.663-1.052.574-.284,1.212-.418,1.852-.389v-.185c.017-.264-.047-.528-.183-.755-.18-.181-.431-.273-.686-.251-.437.004-.867.106-1.258.3l-.137-.595c.477-.202.991-.304,1.509-.3,1.029,0,1.555.48,1.555,1.464v1.6c0,.435,0,.846.023,1.212h-.777v.025ZM73.41,52.179c-1.189,0-1.761.275-1.761.8-.008.345.265.632.61.64.01,0,.02,0,.03,0,.324-.002.628-.154.823-.412.206-.261.319-.583.32-.915v-.115l-.022.002Z" fill="#fff"/>
      <path id="fk" data-name="Path 26545" d="M80.797,54.145v-2.7c0-.64-.229-.96-.686-.96-.324-.004-.627.16-.8.434-.259.349-.389.778-.366,1.212v1.992h-.755v-2.7c0-.64-.229-.96-.686-.96-.332.01-.639.18-.823.457-.239.349-.359.766-.343,1.189v1.99h-.755v-4.185h.732c.003.299-.02.597-.069.892h0c.222-.609.817-1,1.464-.961.333-.022.659.103.892.343.143.168.23.376.251.595.217-.602.802-.992,1.441-.961.823,0,1.258.457,1.258,1.372v2.881h-.755v.07Z" fill="#fff"/>
    </g>
  </g>
</svg>