<?xml version="1.0" encoding="UTF-8"?>
<svg id="b" data-name="Layer 2" xmlns="http://www.w3.org/2000/svg" width="24.416" height="24.416" viewBox="0 0 24.416 24.416">
  <g id="c" data-name="UI Shell - Footer">
    <g>
      <path id="d" data-name="Path 38646" d="M6.177,9.796v8.443" fill="none" stroke="#fff" stroke-linecap="round" stroke-linejoin="round" stroke-width="1.5"/>
      <path id="e" data-name="Path 38647" d="M11.002,13.414v4.824M11.002,13.414c0-1.998,1.62-3.618,3.618-3.618s3.618,1.62,3.618,3.618v4.824M11.002,13.414v-3.618" fill="none" stroke="#fff" stroke-linecap="round" stroke-linejoin="round" stroke-width="1.5"/>
      <path id="f" data-name="Path 38648" d="M6.187,6.178h-.01" fill="none" stroke="#fff" stroke-linecap="round" stroke-linejoin="round" stroke-width="2"/>
      <path id="g" data-name="Path 38649" d="M.75,12.208C.75,6.808.75,4.108,2.428,2.428S6.807.75,12.208.75s8.1,0,9.78,1.678,1.678,4.379,1.678,9.78,0,8.1-1.678,9.78-4.379,1.678-9.78,1.678-8.1,0-9.78-1.678-1.678-4.379-1.678-9.78Z" fill="none" stroke="#fff" stroke-linejoin="round" stroke-width="1.5"/>
    </g>
  </g>
</svg>