<?xml version="1.0" encoding="UTF-8"?>
<svg id="b" data-name="Layer 2" xmlns="http://www.w3.org/2000/svg" width="228.903" height="62.348" xmlns:xlink="http://www.w3.org/1999/xlink" viewBox="0 0 228.903 62.348">
  <defs>
    <clipPath id="d">
      <rect x=".003" width="228.899" height="62.347" fill="none"/>
    </clipPath>
  </defs>
  <g id="c" data-name="UI Shell - Footer">
    <g clip-path="url(#d)">
      <path id="e" data-name="Path 182" d="M4.826,50.705c-.27.024-.469.262-.445.531.024.27.262.469.531.445.253-.022.448-.235.447-.489-.002-.272-.224-.491-.495-.489-.013,0-.025,0-.038.002" fill="#fff"/>
      <path id="f" data-name="Path 183" d="M8.35,52.234c-.465.024-.9.235-1.206.586h-.023l-.066-.5h-.705v3.673h.861v-2.567c.2-.266.505-.433.837-.458.4,0,.572.228.572.832v2.192h.861v-2.3c0-.927-.344-1.459-1.13-1.459" fill="#fff"/>
      <path id="g" data-name="Path 184" d="M12.43,55.419h-.653c-.446,0-.6-.126-.6-.332-.002-.139.065-.271.179-.351.159.063.329.097.5.1.687.081,1.31-.41,1.391-1.097.006-.052.009-.104.009-.156.004-.224-.07-.442-.209-.617h.67v-.64h-1.315c-.175-.061-.36-.091-.545-.09-.736-.062-1.383.483-1.445,1.219-.003.033-.004.067-.005.1.002.381.181.739.484.969v.03c-.236.151-.387.405-.407.685-.007.249.12.483.332.614v.03c-.305.146-.508.445-.53.783,0,.643.653.957,1.529.957,1.2,0,1.959-.57,1.959-1.295,0-.635-.467-.906-1.345-.906M11.856,52.832c.356.001.644.291.643.647,0,.025-.002.051-.005.076.052.352-.191.679-.542.732s-.679-.191-.732-.542c-.009-.063-.009-.127,0-.189-.044-.352.206-.674.558-.718.026-.003.053-.005.079-.005M11.947,57.064c-.577,0-.936-.195-.936-.53.01-.198.116-.379.284-.484.164.038.332.054.5.05h.5c.421,0,.648.084.648.368,0,.317-.4.6-1,.6" fill="#fff"/>
      <path id="h" data-name="Path 185" d="M18.191,53.313l-.659-.277c-.406-.166-.778-.308-.778-.692,0-.357.3-.574.766-.574.394.002.773.152,1.062.42l.446-.551c-.401-.398-.942-.623-1.507-.624-.817-.087-1.55.504-1.638,1.321-.002.019-.004.039-.005.058.017.601.415,1.124.989,1.3l.669.29c.444.188.759.317.759.72,0,.381-.3.63-.852.63-.48-.02-.934-.219-1.275-.557l-.505.595c.471.46,1.104.717,1.762.717.852.112,1.633-.488,1.745-1.34.005-.038.009-.076.011-.114.007-.612-.398-1.153-.988-1.319" fill="#fff"/>
      <path id="i" data-name="Path 186" d="M21.451,52.234c-.538.016-1.06.182-1.507.481l.317.575c.304-.213.661-.338,1.032-.362.5,0,.655.329.667.724-1.507.161-2.159.571-2.159,1.357-.027.568.411,1.05.978,1.077.036.002.071.002.107,0,.428-.024.833-.201,1.14-.5h.024l.066.407h.706v-2.175c0-1.023-.452-1.588-1.37-1.588M21.961,55.009c-.202.235-.491.379-.8.4-.309,0-.529-.143-.529-.467,0-.371.332-.631,1.328-.757v.824Z" fill="#fff"/>
      <path id="j" data-name="Path 187" d="M24.903,55.383c-.09,0-.185-.074-.185-.287v-4.382h-.861v4.337c0,.64.224,1.035.835,1.035.155.004.309-.021.454-.074l-.107-.643c-.044.011-.09.016-.135.015" fill="#fff"/>
      <path id="k" data-name="Path 188" d="M30.273,53.805v2.192h.861v-2.3c0-.928-.359-1.46-1.134-1.46-.469.042-.899.281-1.182.658-.149-.424-.566-.694-1.014-.658-.442.03-.852.244-1.128.591h-.024l-.066-.5h-.706v3.673h.861v-2.566c.184-.251.461-.416.769-.458.386,0,.566.228.566.832v2.192h.861v-2.566c.183-.252.461-.417.769-.458.386,0,.566.228.566.832" fill="#fff"/>
      <path id="l" data-name="Path 189" d="M31.988,55.009c-.027.568.411,1.05.978,1.077.036.002.071.002.107,0,.428-.024.833-.201,1.14-.5h.024l.066.407h.706v-2.175c0-1.022-.452-1.587-1.371-1.587-.538.016-1.06.182-1.507.481l.317.574c.304-.213.661-.338,1.032-.362.5,0,.655.329.667.724-1.507.162-2.159.572-2.159,1.358M34.147,54.184v.826c-.202.235-.49.379-.8.4-.308,0-.529-.142-.529-.467,0-.371.332-.631,1.328-.757" fill="#fff"/>
      <path id="m" data-name="Path 190" d="M38.045,52.234c-.465.024-.9.235-1.206.586h-.023l-.066-.5h-.706v3.673h.861v-2.567c.2-.266.505-.433.837-.458.4,0,.572.228.572.832v2.192h.861v-2.3c0-.927-.344-1.459-1.13-1.459" fill="#fff"/>
      <path id="n" data-name="Path 191" d="M43.85,56.086c.576.016,1.135-.192,1.561-.58v-2.157h-1.7v.712h.922v1.056c-.202.15-.449.226-.7.215-.981,0-1.5-.676-1.5-1.791,0-1.1.583-1.771,1.451-1.771.374-.004.733.15.987.425l.464-.559c-.386-.402-.921-.626-1.478-.619-1.279-.005-2.32,1.027-2.326,2.306,0,.082.004.164.012.245-.143,1.241.747,2.362,1.987,2.505.104.012.208.017.312.014" fill="#fff"/>
      <path id="o" data-name="Path 192" d="M47.257,56.087c.155.005.309-.021.454-.074l-.107-.643c-.044.011-.09.016-.135.015-.09,0-.185-.075-.185-.287v-4.383h-.862v4.338c0,.64.225,1.035.835,1.035" fill="#fff"/>
      <path id="p" data-name="Path 193" d="M49.953,56.087c1.064.104,2.01-.674,2.114-1.738.104-1.064-.674-2.01-1.738-2.114s-2.01.674-2.114,1.738c-.006.063-.009.127-.009.191-.08.979.648,1.837,1.627,1.917.04.003.08.005.12.006M49.953,52.937c.538,0,.861.49.861,1.226s-.323,1.22-.861,1.22-.862-.485-.862-1.22.324-1.226.862-1.226" fill="#fff"/>
      <path id="q" data-name="Path 194" d="M53.263,55.61h.023c.259.282.618.453,1,.476.818,0,1.568-.727,1.568-1.988,0-1.129-.531-1.865-1.449-1.865-.397.021-.773.184-1.061.458l.024-.611v-1.366h-.862v5.282h.679l.078-.386ZM53.37,53.357c.2-.24.488-.39.8-.413.559,0,.8.434.8,1.167,0,.832-.374,1.262-.865,1.262-.274-.009-.536-.118-.736-.305v-1.711Z" fill="#fff"/>
      <path id="r" data-name="Path 195" d="M58.657,55.59h.023l.066.407h.706v-2.175c0-1.023-.452-1.588-1.37-1.588-.538.016-1.06.182-1.507.481l.317.574c.304-.213.661-.338,1.032-.362.5,0,.655.329.666.724-1.507.162-2.159.571-2.159,1.358-.027.568.412,1.051.98,1.077.035.002.07.002.106,0,.428-.024.833-.201,1.14-.5M57.263,54.939c0-.371.332-.631,1.328-.757v.826c-.202.235-.49.38-.8.4-.309,0-.53-.142-.53-.467" fill="#fff"/>
      <path id="s" data-name="Path 196" d="M61.533,55.383c-.09,0-.185-.074-.185-.287v-4.382h-.865v4.337c0,.64.224,1.035.835,1.035.155.004.309-.021.454-.074l-.107-.643c-.044.011-.09.016-.135.015" fill="#fff"/>
      <path id="t" data-name="Path 197" d="M64.714,54.672h1.64l.379,1.325h.918l-1.595-4.89h-1.017l-1.595,4.89h.886l.384-1.325ZM65.082,53.395c.156-.517.3-1.071.434-1.612h.03c.144.536.287,1.095.443,1.612l.17.6h-1.249l.172-.6Z" fill="#fff"/>
      <path id="u" data-name="Path 198" d="M70.559,55.066c-.208.191-.477.304-.76.317-.571,0-.975-.485-.975-1.22s.41-1.227,1-1.227c.23.009.449.105.61.27l.419-.56c-.293-.269-.677-.416-1.075-.413-1.002-.017-1.828.782-1.845,1.784,0,.048,0,.097.003.145-.097.961.603,1.818,1.564,1.914.068.007.137.01.206.009.442,0,.868-.16,1.2-.452l-.347-.567Z" fill="#fff"/>
      <path id="v" data-name="Path 199" d="M74.384,53.822c0-1.023-.452-1.588-1.37-1.588-.538.016-1.06.182-1.508.481l.318.575c.304-.213.661-.338,1.032-.362.5,0,.655.329.667.724-1.507.161-2.159.571-2.159,1.357-.027.568.411,1.05.978,1.077.036.002.071.002.107,0,.428-.024.833-.201,1.14-.5h.024l.066.407h.706v-2.171ZM73.522,55.013c-.202.235-.49.379-.8.4-.308,0-.529-.143-.529-.467,0-.371.331-.631,1.328-.757v.824Z" fill="#fff"/>
      <path id="w" data-name="Path 200" d="M78.538,55.997v-5.283h-.862v1.331l.033.593c-.254-.257-.601-.401-.963-.4-.95.087-1.649.928-1.561,1.878.002.017.003.034.005.051,0,1.212.593,1.923,1.508,1.923.398-.021.772-.196,1.044-.488h.024l.066.4.706-.005ZM77.676,54.962c-.176.251-.46.404-.766.413-.529,0-.835-.422-.835-1.221,0-.765.386-1.208.853-1.208.279.001.547.111.748.305v1.711Z" fill="#fff"/>
      <path id="x" data-name="Path 201" d="M82.169,55.153c-.252.17-.548.263-.852.267-.577.021-1.062-.431-1.083-1.008,0-.005,0-.011,0-.016h2.332c.025-.138.038-.278.037-.418,0-1.026-.523-1.744-1.516-1.744-1.061.133-1.813,1.101-1.68,2.162.116.922.87,1.632,1.797,1.691.45-.006.888-.145,1.259-.4l-.294-.534ZM81.104,52.901c.5,0,.754.344.754.91h-1.633c.006-.488.391-.887.879-.91" fill="#fff"/>
      <path id="y" data-name="Path 202" d="M85.623,55.997h.861v-2.566c.182-.252.461-.417.769-.458.386,0,.566.228.566.832v2.192h.861v-2.3c0-.928-.359-1.46-1.133-1.46-.47.042-.899.281-1.182.658-.149-.424-.566-.695-1.014-.658-.442.03-.852.244-1.128.591h-.025l-.066-.5h-.706v3.673h.862v-2.566c.183-.25.461-.416.768-.458.387,0,.566.228.566.832v2.188Z" fill="#fff"/>
      <path id="z" data-name="Path 203" d="M90.649,56.182c-.067.355-.371.617-.733.631-.09-.005-.179-.022-.264-.05l-.158.667c.154.052.316.077.478.075.8,0,1.188-.513,1.493-1.34l1.329-3.841h-.832l-.547,1.8c-.1.335-.189.7-.281,1.038h-.03c-.107-.35-.213-.712-.323-1.038l-.634-1.8h-.873l1.444,3.628-.069.23Z" fill="#fff"/>
      <path id="aa" data-name="Path 204" d="M95.189,51.936v.384l-.494.036v.646h.494v2.989h.861v-2.989h.718v-.684h-.718v-.4c0-.426.162-.619.466-.619.138.002.274.031.4.087l.164-.643c-.214-.084-.443-.128-.673-.129-.867,0-1.217.558-1.217,1.319" fill="#fff"/>
      <path id="ab" data-name="Path 205" d="M98.842,52.227c-1.064-.104-2.011.674-2.116,1.738s.674,2.011,1.738,2.116c1.064.104,2.011-.674,2.116-1.738.006-.062.009-.124.009-.187.082-.98-.645-1.841-1.625-1.923-.041-.003-.082-.005-.122-.006M98.842,55.377c-.538,0-.862-.485-.862-1.22s.324-1.226.862-1.226.861.49.861,1.226-.323,1.22-.861,1.22" fill="#fff"/>
      <path id="ac" data-name="Path 206" d="M102.238,52.972h-.024l-.066-.655h-.706v3.672h.862v-2.24c.221-.56.574-.76.867-.76.128,0,.255.021.377.06l.15-.747c-.131-.057-.273-.082-.416-.075-.458.038-.859.324-1.044.745" fill="#fff"/>
      <path id="ad" data-name="Path 207" d="M106.76,51.099l-1.594,4.89h.885l.382-1.325h1.64l.379,1.325h.918l-1.594-4.89h-1.016ZM106.63,53.984l.172-.6c.156-.518.3-1.071.434-1.612h.03c.143.536.287,1.094.442,1.612l.171.6h-1.249Z" fill="#fff"/>
      <path id="ae" data-name="Path 208" d="M110.695,52.972h-.024l-.066-.655h-.706v3.672h.862v-2.24c.222-.56.575-.76.868-.76.128,0,.255.021.377.06l.15-.747c-.131-.057-.273-.082-.416-.075-.458.038-.859.324-1.044.745" fill="#fff"/>
      <path id="af" data-name="Path 209" d="M113.948,52.227c-.538.016-1.06.182-1.508.481l.318.575c.304-.213.661-.338,1.032-.362.5,0,.655.329.667.724-1.508.161-2.16.571-2.16,1.357-.027.568.411,1.05.978,1.077.036.002.072.002.108,0,.428-.024.833-.201,1.14-.5h.024l.066.407h.706v-2.175c0-1.023-.452-1.588-1.37-1.588M114.458,55.002c-.202.235-.491.379-.8.4-.308,0-.529-.143-.529-.467,0-.371.331-.631,1.328-.757v.824Z" fill="#fff"/>
      <path id="ag" data-name="Path 210" d="M118.25,52.225c-.397.021-.772.183-1.06.457l.024-.61v-1.367h-.862v5.283h.679l.074-.386h.024c.259.282.618.453,1,.476.817,0,1.568-.727,1.568-1.988,0-1.129-.531-1.865-1.45-1.865M117.947,55.366c-.274-.009-.536-.118-.736-.305v-1.711c.2-.24.488-.389.8-.413.56,0,.8.433.8,1.167,0,.831-.374,1.262-.865,1.262" fill="#fff"/>
      <path id="ah" data-name="Path 211" d="M120.996,50.698c-.27.023-.469.261-.446.53s.261.469.53.446c.254-.022.449-.235.448-.489-.002-.272-.224-.49-.495-.489-.012,0-.024,0-.037.002" fill="#fff"/>
      <rect id="ai" data-name="Rectangle 7" x="120.562" y="52.317" width=".862" height="3.673" fill="#fff"/>
      <path id="aj" data-name="Path 212" d="M124.139,55.377c-.571,0-.975-.485-.975-1.22s.41-1.226,1-1.226c.23.008.449.105.61.269l.419-.56c-.293-.269-.677-.416-1.075-.413-1.002-.017-1.828.782-1.845,1.784,0,.048,0,.097.003.145-.097.961.603,1.818,1.564,1.914.068.007.137.01.206.009.442,0,.868-.161,1.2-.452l-.35-.569c-.208.192-.477.304-.76.317" fill="#fff"/>
      <path id="ak" data-name="Path 213" d="M128.413,51.099h-.867v4.891h2.9v-.73h-2.031l-.002-4.161Z" fill="#fff"/>
      <path id="al" data-name="Path 214" d="M132.679,52.227c-.538.016-1.06.182-1.508.481l.318.575c.304-.213.661-.338,1.032-.362.5,0,.655.329.667.724-1.507.161-2.16.571-2.16,1.357-.027.568.411,1.05.978,1.077.036.002.072.002.108,0,.428-.024.833-.201,1.14-.5h.024l.066.407h.706v-2.175c0-1.023-.452-1.588-1.37-1.588M133.188,55.002c-.202.235-.491.379-.8.4-.308,0-.529-.143-.529-.467,0-.371.332-.631,1.328-.757v.824Z" fill="#fff"/>
      <path id="am" data-name="Path 215" d="M137.084,52.227c-.465.024-.9.235-1.206.586h-.023l-.066-.5h-.706v3.676h.861v-2.567c.2-.266.505-.432.837-.457.4,0,.572.227.572.832v2.192h.861v-2.3c0-.927-.344-1.459-1.13-1.459" fill="#fff"/>
      <path id="an" data-name="Path 216" d="M141.162,55.412h-.653c-.446,0-.6-.126-.6-.332-.002-.14.066-.271.18-.351.159.064.329.097.5.1.687.081,1.31-.41,1.391-1.097.006-.052.009-.104.009-.156.004-.224-.07-.442-.209-.617h.67v-.64h-1.313c-.175-.061-.36-.091-.545-.09-.736-.063-1.383.482-1.446,1.218-.003.034-.004.067-.005.101.002.381.181.739.484.969v.03c-.236.151-.387.405-.407.685-.006.249.12.483.333.614v.03c-.305.146-.508.445-.53.783,0,.643.652.957,1.529.957,1.2,0,1.959-.57,1.959-1.295,0-.635-.467-.906-1.345-.906M140.591,52.825c.356.001.644.291.643.647,0,.025-.002.051-.005.076.054.352-.187.681-.54.736-.352.054-.681-.187-.735-.54-.01-.065-.01-.131,0-.196-.044-.352.206-.674.558-.718.026-.003.053-.005.08-.005M140.682,57.057c-.578,0-.937-.195-.937-.53.01-.198.116-.379.284-.484.164.038.332.054.5.05h.5c.421,0,.648.084.648.368,0,.317-.4.6-1,.6" fill="#fff"/>
      <path id="ao" data-name="Path 217" d="M145.363,54.832c-.278.359-.491.508-.814.508-.4,0-.571-.227-.571-.831v-2.192h-.862v2.3c0,.927.344,1.46,1.131,1.46.471-.012.909-.246,1.181-.631h.024l.066.542h.71v-3.673h-.861l-.004,2.517Z" fill="#fff"/>
      <path id="ap" data-name="Path 218" d="M148.77,52.227c-.538.015-1.06.182-1.507.481l.317.575c.304-.213.661-.338,1.032-.362.5,0,.656.329.667.724-1.508.161-2.159.571-2.159,1.357-.027.568.411,1.05.978,1.077.036.002.072.002.108,0,.428-.024.832-.201,1.139-.5h.024l.066.407h.706v-2.175c0-1.023-.452-1.588-1.37-1.588M149.28,55.002c-.202.235-.491.379-.8.4-.308,0-.529-.143-.529-.467,0-.371.332-.631,1.328-.757v.824Z" fill="#fff"/>
      <path id="aq" data-name="Path 219" d="M153.066,55.412h-.653c-.446,0-.6-.126-.6-.332-.002-.14.066-.271.18-.351.159.064.329.097.5.1.687.081,1.31-.41,1.391-1.097.006-.052.009-.104.009-.156.004-.224-.07-.442-.209-.617h.67v-.64h-1.314c-.175-.061-.36-.091-.545-.09-.736-.062-1.383.483-1.445,1.219-.003.033-.004.066-.005.1.002.381.181.739.484.969v.03c-.236.152-.386.405-.406.685-.007.249.12.483.332.614v.03c-.305.146-.508.445-.53.783,0,.643.653.957,1.529.957,1.2,0,1.959-.57,1.959-1.295,0-.635-.467-.906-1.345-.906M152.495,52.825c.356.001.644.291.643.647,0,.025-.002.051-.005.076.05.352-.194.678-.546.729-.352.05-.678-.194-.729-.546-.009-.06-.009-.122,0-.182-.044-.352.206-.674.558-.718.026-.003.053-.005.079-.005M152.585,57.057c-.577,0-.936-.195-.936-.53.01-.198.116-.379.284-.484.164.038.332.054.5.05h.5c.421,0,.648.084.648.368,0,.317-.4.6-1,.6" fill="#fff"/>
      <path id="ar" data-name="Path 220" d="M156.393,52.227c-1.061.133-1.813,1.101-1.68,2.162.116.922.87,1.632,1.797,1.691.45-.007.888-.146,1.259-.4l-.293-.536c-.252.17-.548.262-.852.266-.577.021-1.061-.429-1.083-1.006,0-.006,0-.011,0-.017h2.332c.026-.138.039-.278.038-.419,0-1.026-.524-1.743-1.517-1.743M155.533,53.801c.006-.488.391-.887.879-.91.5,0,.754.344.754.91h-1.633Z" fill="#fff"/>
      <path id="as" data-name="Path 221" d="M7.065,17.841h18.613c.821-.525,1.414-1.34,1.66-2.283.051-.511.076-1.026.077-1.545,0-.212,0-.419-.01-.624-.108-1.143-.308-2.275-.6-3.386l-.269-.077-1.4,2.082c.352,1.2.627,2.42.824,3.655H7.065c-1.14.006-2.276-.139-3.378-.432-1.88-.607-2.82-1.751-2.821-3.434v-.489l-.249-.1c-.343.661-.553,1.382-.617,2.124v.364c0,2.744,2.354,4.126,7.062,4.145" fill="#fff"/>
      <path id="at" data-name="Path 222" d="M14.417,10.914v-.029c-.591-.437-1.216-.825-1.871-1.16-.043,0-.086.009-.125.028-.448.461-.737,1.053-.825,1.689v.029c.611.432,1.258.81,1.934,1.132.469-.453.779-1.045.883-1.689" fill="#fff"/>
      <path id="au" data-name="Path 223" d="M66.057,15.759c.266-.721.396-1.486.383-2.255v-1.218l-.221-.144-1.429,1.487.019,2.082c-1.638-.071-2.569-.253-2.792-.546l.691-2.821-.2-.105-1.286,1.228-.633,2.2h-4.155c.272-.405.501-.837.682-1.29.155-.393.236-.811.239-1.233l-.249-.116c-.375.598-.826,1.145-1.343,1.627-.649.543-1.436.893-2.274,1.012h-2.361c-.687.071-1.352-.267-1.7-.864-.418-1.068-.641-2.202-.657-3.349-.129-1.657-.305-3.623-.529-5.9h-.239l-1.017,1.757c.223,2.225.383,3.984.48,5.276.047.788.137,1.573.269,2.351-.314.493-1.108.739-2.381.738-.101,0-.204-.003-.307-.009h-.457c-.286-.059-.566-.143-.838-.25-1.15-.559-1.873-1.734-1.852-3.013v-.72c0-.077-.143-.135-.431-.173-.983.028-1.946.287-2.811.757-.863.403-1.592,1.047-2.1,1.853-.606,1.088-1.804,1.707-3.042,1.573h-.1c-.017-.014-.034-.028-.043-.028h-.308c-.689.071-1.355-.267-1.706-.864-.421-1.067-.644-2.202-.658-3.349-.125-1.657-.3-3.623-.523-5.9h-.25l-1.007,1.757c.223,2.225.382,3.984.475,5.276.046.962.173,1.919.379,2.86.185.729.632,1.364,1.256,1.784.557.377,1.211.585,1.883.6l.018.019h.442l.006-.007c.413-.058.82-.158,1.212-.3.744-.321,1.299-.967,1.506-1.751.02.186.276.493.768.922,1.463.843,3.026,1.497,4.653,1.947.224,0,.528-.416.912-1.247.62.309,1.308.458,2,.432h.509l.014-.015c.419-.002.835-.069,1.233-.2.776-.344,1.426-.92,1.861-1.649.222.511.589.944,1.056,1.247.571.387,1.243.596,1.933.6l.014.015h2.36c.619-.106,1.186-.413,1.612-.874l.307.874h2.868v-.01h1.545l.96-.921c.667.595,1.898.906,3.694.932h.451c.527-.614.937-1.32,1.208-2.082M41.067,16.023c-1.216-.328-2.355-.895-3.348-1.67v-.058c.823-.363,1.697-.599,2.591-.7.123.003.236.068.3.172v.6c.01.564.169,1.116.46,1.6l-.003.056Z" fill="#fff"/>
      <path id="av" data-name="Path 224" d="M80.357,13.591l.067.029c.907-.399,1.505-1.283,1.536-2.274,0-.569-.8-.854-2.4-.854.761-.552,1.67-.863,2.609-.892h.307c.512,0,.768.204.768.613h.029c.327-.321.533-.745.585-1.2,0-.447-.297-.671-.892-.671h-.366c-1.159.058-2.263.512-3.128,1.286-.741.685-1.112,1.248-1.113,1.689v.125c0,.205.176.307.528.307h.336c.678-.048,1.354.113,1.938.46-.895.443-1.891.645-2.888.586-.677-.026-1.426-.09-2.245-.192l-.058.038v.029c1.221.681,2.594,1.04,3.992,1.046.14-.006.275-.049.393-.125" fill="#fff"/>
      <path id="aw" data-name="Path 225" d="M79.225,17.842h6.428c.726-.508,1.358-1.138,1.87-1.861.197,1.142.784,2.18,1.661,2.937.37.342.858.528,1.362.518.279-.003.556-.042.825-.115.315-.214.577-.496.768-.825.276-.59.395-1.241.345-1.89v-.286c.586.817,1.48,1.359,2.475,1.5.175.019.35.028.526.027h.211l.023-.019c.403-.02.801-.091,1.186-.211.607-.317,1.261-.533,1.937-.642h.078c1.002.193,1.957.581,2.811,1.141h.163c.308-.592.549-1.216.72-1.861.026-.084.039-.171.038-.259,0-.058-.006-.116-.02-.172-.274-.228-.57-.429-.883-.6-.662-.219-1.261-.594-1.746-1.094-.307-.383-.553-1.704-.738-3.963l.537.269h.144l.94-1.842v-.211l-1.881-1.219c-.524-.183-.879-.673-.891-1.228,0-.077,0-.154.01-.231l-.172-.134-.135.211c-.485.62-.781,1.366-.854,2.149v.23c0,.383.361.77,1.084,1.161.333,3.461.519,5.351.556,5.671-.849.465-1.805.699-2.773.681-.109,0-.214,0-.317-.01l-.014.01h-.111c-.122,0-.294-.01-.517-.028-.545-.054-1.029-.369-1.3-.845-.327-.569-.784-3.649-1.372-9.24h-.249l-1.036,1.757c.511,4.579.773,7.236.786,7.972-.042.519-.123,1.034-.244,1.54-.083.33-.396.548-.734.513l-.01.01c-.751-.032-1.404-.527-1.636-1.242-.387-.829-.818-4.345-1.291-10.55h-.25l-1.084,1.757.47,5.276c.048.788.138,1.573.269,2.351-.256.486-1.037.729-2.342.729h-5.623c-1.138.007-2.272-.128-3.377-.4-1.881-.608-2.821-1.753-2.821-3.434v-.49l-.249-.1c-.342.66-.551,1.38-.614,2.121v.364c0,2.743,2.354,4.115,7.061,4.116" fill="#fff"/>
      <path id="ax" data-name="Path 226" d="M105.217,17.841c.505-.982.852-2.037,1.027-3.127-.177-3.066-.53-6.119-1.056-9.144h-.335l-1.122,2.284c.601,3.301.986,6.637,1.151,9.988h.335Z" fill="#fff"/>
      <path id="ay" data-name="Path 227" d="M140.967,16.356c.87-.683,1.883-1.162,2.963-1.4.052.688.238,1.36.547,1.977.267.608,1.118.912,2.553.911h1.937l.012-.012c.574.005,1.144-.088,1.686-.276.306-.235.581-.508.82-.811.241-.303.507-.676.8-1.117.382.274.79.508,1.218.7.987.45,2.019.794,3.079,1.027.154,0,.576-.659,1.266-1.977v-.786c-.235-2.737-.961-4.106-2.177-4.106h-.077c-1.382,0-2.639,1.42-3.771,4.26-.442.607-1.44.911-2.993.911h-2.819c-.514-.052-.959-.379-1.162-.854h1.833l1.084-2.054-.067-.173h-.508c-1.589-.084-3.16-.377-4.672-.872-.237-.058-.667-.167-1.291-.327-.517-.145-1.05-.225-1.587-.24h-.03c-1.051-.04-2.051.455-2.657,1.315-.338.49-.597,1.03-.767,1.6l.231.116c.45-.574,1.152-.893,1.88-.854h.278c.651.028,1.296.129,1.924.3.829.2,1.31.32,1.444.36-1.797,1.033-3.82,1.609-5.891,1.679h-1.242l-.02.028h-.047c-.328-.061-.649-.154-.959-.278-1.15-.559-1.872-1.734-1.851-3.013v-.72c0-.077-.145-.135-.432-.173-.983.028-1.947.287-2.811.757-.863.403-1.592,1.047-2.1,1.853-.606,1.088-1.804,1.707-3.042,1.573h-.181l-.029-.028h-1.939c-1.667,0-2.728-.211-3.185-.634l-.1-.106.7-.278c.729-.206,1.434-.492,2.1-.854l.834-1.851-.259-.182c-1.855.812-3.582,1.579-5.181,2.3-.793-.163-1.54-.5-2.187-.988-.921-.672-1.382-1.245-1.382-1.718.802-.877,1.975-1.319,3.157-1.189.852.032,1.7.141,2.532.326h.028l.2-.307-.1-.154c-.778-.798-1.722-1.417-2.764-1.813-.947.028-1.842.436-2.485,1.132-.874.904-1.395,2.092-1.468,3.348,0,1.215.828,2.21,2.484,2.984-.81.752-1.439,1.679-1.837,2.71-.248.644-.399,1.322-.446,2.011v.94c.045.504.192.993.432,1.438.753,1.259,2.556,1.889,5.409,1.889,1.144.073,2.288-.152,3.32-.652l1.948-1.219v-.309h-4.384c-1.611.118-3.217-.29-4.577-1.161-.673-.467-1.075-1.234-1.075-2.053,0-.144.01-.289.029-.432.369-.775.926-1.444,1.621-1.948.784-.683,1.668-1.242,2.62-1.66.007.478.081.953.221,1.41.441.805,1.595,1.208,3.463,1.209h2.274c.436-.047.865-.148,1.276-.3.744-.321,1.299-.967,1.506-1.751.019.185.275.493.768.922,1.463.842,3.026,1.495,4.653,1.944.223,0,.527-.416.911-1.247.622.31,1.311.458,2.005.432h1.593c1.742-.038,3.441-.551,4.913-1.483M154.967,12.371c.677.051,1.192.956,1.545,2.716-1.109-.313-2.171-.774-3.157-1.371.277-.691.883-1.196,1.612-1.344M131.096,16.018c-1.216-.328-2.355-.896-3.348-1.67v-.058c.823-.363,1.697-.599,2.591-.7.123.003.236.068.3.172v.6c.01.564.169,1.116.46,1.6l-.003.056Z" fill="#fff"/>
      <path id="az" data-name="Path 228" d="M140.955,18.955c-.393.441-.655.982-.757,1.564.015.034.024.069.029.106,1.183.709,1.8,1.064,1.853,1.065h.076c.424-.46.704-1.034.806-1.651-.002-.024-.009-.046-.02-.067-.224-.153-.835-.527-1.832-1.122-.032,0-.083.035-.154.106" fill="#fff"/>
      <path id="ba" data-name="Path 229" d="M3.083,27.839c-.6-.43-1.247-.791-1.928-1.076-.442.474-.741,1.063-.864,1.7.594.487,1.241.905,1.928,1.247.103-.019.375-.374.816-1.065.558.396,1.16.728,1.793.988h.077c.424-.437.699-.997.787-1.6v-.077c-.546-.498-1.171-.901-1.85-1.193-.219,0-.472.358-.759,1.075" fill="#fff"/>
      <path id="bb" data-name="Path 230" d="M28.672,40.772c-.2,0-.462.355-.786,1.065-1.165-.679-1.754-1.034-1.767-1.065-.063.003-.125.019-.182.048-.402.471-.673,1.04-.786,1.649v.03c.599.431,1.227.819,1.881,1.161.33-.275.582-.632.729-1.036v-.028c1.183.677,1.783,1.032,1.8,1.064l.1-.019c.442-.462.734-1.048.835-1.679v-.018c-.576-.437-1.186-.829-1.823-1.171" fill="#fff"/>
      <path id="bc" data-name="Path 231" d="M39.284,36.244c-.084-1.292-.519-2.537-1.258-3.6h-.153l-.988,1.967c.444.768.805,1.582,1.075,2.427h-2.357c-.568.033-1.133-.1-1.626-.384-.349-.233-.614-.573-.754-.969.185-.486.342-.902.471-1.247l-.854-.356c-.921,1.971-2.088,2.956-3.5,2.955H9.214c-.638-.137-1.219-.469-1.66-.95-.823-1.137-1.321-2.477-1.439-3.876-.017-.607-.1-1.211-.249-1.8l-.058.028c-.427.499-.685,1.12-.739,1.775v.345l.029.058c-.121.077-.182.128-.182.154-2.162.933-3.348,1.579-3.559,1.938-.725.895-1.193,1.969-1.354,3.109v.125c0,.473.451.709,1.354.71,1.353.1,2.704-.222,3.866-.921.299-.325.51-.721.614-1.151h.029c.677,1.759,1.774,2.638,3.291,2.638h19.985c.462-.046.916-.149,1.353-.307.874-.365,1.568-1.062,1.928-1.938h.029c.019.281.095.555.221.806.474.88,1.389,1.431,2.388,1.439h3.282c.415-.956.73-1.953.941-2.974M2.556,36.456h-.553c-.291,0-.58-.034-.863-.1v-.029c.172-.163.369-.296.585-.393.972-.335,1.908-.769,2.792-1.295.285-.267.525-.578.71-.922.064.684.186,1.361.364,2.025-.93.501-1.976.746-3.031.71" fill="#fff"/>
      <path id="bd" data-name="Path 232" d="M36.223,42.144v.125c.578.464,1.205.863,1.871,1.189.267,0,.58-.582.94-1.746-.591-.45-1.221-.848-1.881-1.189-.3,0-.61.54-.93,1.621" fill="#fff"/>
      <path id="be" data-name="Path 233" d="M59.979,26.838l.068-.355-.241-.135c-.562.632-.903,1.431-.969,2.274-.003.686.379,1.316.988,1.631.535,2.229.894,4.497,1.075,6.783h-2.734c-.78.041-1.544-.224-2.131-.739.336-.523.528-1.125.557-1.746v-.153c-.008-.153-.034-.304-.077-.451-.482-.819-1.384-1.298-2.332-1.237h-.432c-.78.012-1.547.199-2.245.547-.294.646-.561,1.298-.8,1.957l.086.087c.24-.053.484-.082.729-.087.882.067,1.69.52,2.207,1.238-1.35.423-2.76.621-4.174.585h-.768c-1.488-.058-2.673-1.265-2.705-2.753l-.317-.01c-.346.607-.608,1.26-.777,1.938.082.954.622,1.809,1.448,2.293l-.2.471c-.948,1.846-2.866,2.99-4.941,2.945-.682-.029-1.356-.158-2-.385l-.115.423c1.209.83,2.563,1.425,3.991,1.756.338-.004.673-.049,1-.134.205-.033.63-.41,1.275-1.132.859-1.047,1.517-2.244,1.939-3.531l.259.105c.307.101.625.162.948.181l.01.011h.384c2.003.03,3.976-.495,5.7-1.516.089.071.166.155.23.249.505.845,1.515,1.267,3.032,1.266h3.3c.594-1.149.912-2.42.93-3.713-.034-1.351-.188-2.696-.461-4.02l.24.115.106-.029.94-1.89v-.153l-1.219-.806c-1.209-.697-1.813-1.324-1.813-1.88" fill="#fff"/>
      <path id="bf" data-name="Path 234" d="M65.9,26.947l-1.123,2.284c.602,3.301.987,6.637,1.152,9.988h.335c.505-.982.851-2.038,1.026-3.128-.177-3.065-.529-6.118-1.055-9.143h-.335Z" fill="#fff"/>
      <path id="bg" data-name="Path 235" d="M75.886,27.839c-.6-.43-1.247-.79-1.928-1.076-.442.474-.741,1.063-.864,1.7.594.487,1.24.905,1.928,1.247.103-.019.374-.374.815-1.065.559.397,1.161.728,1.795.988h.077c.423-.438.698-.998.786-1.6v-.077c-.547-.497-1.173-.899-1.852-1.19-.218,0-.471.358-.758,1.075" fill="#fff"/>
      <path id="bh" data-name="Path 236" d="M90.47,28.365c-.414.438-.696.983-.815,1.574v.172c.594.412,1.22.778,1.871,1.094h.058c.404-.447.691-.988.834-1.573v-.144c-.07-.077-.687-.461-1.851-1.152-.036-.002-.071.008-.1.029" fill="#fff"/>
      <path id="bi" data-name="Path 237" d="M104.286,26.84l.067-.355-.24-.135c-.562.632-.903,1.431-.97,2.274-.003.686.379,1.316.989,1.631.534,2.23.894,4.497,1.075,6.783h-2.657c-.687.07-1.352-.268-1.7-.864-.417-1.068-.639-2.202-.657-3.349-.127-1.657-.303-3.623-.528-5.9h-.24l-1.017,1.757c.224,2.225.384,3.984.48,5.276.048.788.137,1.573.268,2.351-.313.493-1.106.739-2.379.739-.1,0-.2,0-.308-.009h-.374c-.779.042-1.544-.224-2.13-.739.335-.523.527-1.125.556-1.745v-.154c-.008-.153-.034-.304-.077-.451-.482-.819-1.384-1.298-2.332-1.237h-.431c-.78.012-1.547.199-2.245.547-.294.646-.561,1.298-.8,1.957l.087.087c.24-.053.484-.082.729-.087.882.067,1.689.52,2.206,1.238-1.35.423-2.76.621-4.174.585h-5.469c-.638-.137-1.219-.469-1.66-.95-.824-1.137-1.321-2.477-1.438-3.876-.017-.607-.101-1.211-.25-1.8l-.058.028c-.427.499-.685,1.12-.738,1.775v.345l.028.058c-.122.077-.182.128-.182.154-2.163.933-3.35,1.579-3.561,1.938-.724.895-1.191,1.969-1.353,3.108v.125c0,.473.451.709,1.353.71,1.353.1,2.704-.222,3.867-.921.299-.325.51-.721.614-1.151h.029c.677,1.759,1.774,2.638,3.291,2.638h4.966c2.004.031,3.976-.494,5.7-1.516.089.071.167.155.231.249.506.845,1.517,1.267,3.032,1.266h.508l.018-.016c.408-.005.813-.072,1.2-.2.776-.344,1.426-.921,1.861-1.65.221.511.588.945,1.055,1.247.571.387,1.244.596,1.934.6l.014.014h3.089c.595-1.148.913-2.42.931-3.713-.034-1.351-.188-2.696-.461-4.02l.24.115.106-.029.94-1.889v-.154l-1.218-.806c-1.208-.697-1.813-1.324-1.814-1.881M75.362,36.452h-.557c-.291,0-.58-.034-.863-.1v-.029c.171-.163.369-.296.585-.393.972-.335,1.908-.769,2.792-1.295.285-.267.525-.578.71-.922.065.684.187,1.361.365,2.025-.93.501-1.976.746-3.031.71" fill="#fff"/>
      <path id="bj" data-name="Path 238" d="M121.767,43.612c-.281.292-.506.633-.662,1.007.002.014-.008.027-.023.029-.002,0-.004,0-.006,0-1.164-.691-1.772-1.036-1.823-1.036h-.02l-.076.019c-.425.458-.704,1.033-.8,1.65v.1c.616.409,1.261.774,1.928,1.093.3-.288.527-.642.662-1.035h.019c1.2.691,1.817,1.036,1.852,1.035h.057c.39-.442.666-.972.807-1.544v-.231c-.604-.399-1.232-.761-1.88-1.084l-.035-.003Z" fill="#fff"/>
      <path id="bk" data-name="Path 239" d="M133.463,36.589c-.662-.218-1.261-.594-1.746-1.094-.307-.383-.553-1.704-.739-3.963l.537.268h.144l.94-1.841v-.212l-1.88-1.218c-.525-.183-.88-.673-.891-1.228,0-.077,0-.153.008-.231l-.172-.134-.135.211c-.485.62-.781,1.366-.853,2.149v.231c0,.383.361.77,1.084,1.161.333,3.461.518,5.351.555,5.67-.849.465-1.804.7-2.772.681-.109,0-.214,0-.316-.009l-.014.009h-3.019l-1.026,2.044.1.134c.684-.016,1.365.079,2.019.279.63.267,1.102.808,1.281,1.468h-6.658c-1.14.005-2.276-.14-3.378-.432-1.881-.608-2.821-1.756-2.82-3.444v-.48l-.249-.1c-.341.657-.55,1.374-.614,2.111v.375c0,2.743,2.354,4.125,7.062,4.145h5.949c.677-.566,1.243-1.253,1.669-2.025.103-.186.19-.38.259-.581.06-.191.089-.39.086-.59-.021-.269-.126-.524-.3-.729h.692l.172-.172v-.014c.062-.017.122-.023.182-.043.607-.317,1.262-.534,1.938-.643h.076c1.003.193,1.959.581,2.813,1.141h.162c.308-.592.549-1.216.72-1.861.026-.084.039-.171.038-.259,0-.058-.006-.116-.019-.173-.275-.227-.571-.428-.883-.6" fill="#fff"/>
      <path id="bl" data-name="Path 240" d="M150.724,26.838l.067-.355-.24-.135c-.563.632-.903,1.431-.969,2.274-.003.686.379,1.316.988,1.631.535,2.229.894,4.497,1.075,6.783h-2.734c-.78.042-1.545-.224-2.131-.739.336-.523.528-1.125.557-1.746v-.153c-.008-.153-.034-.304-.077-.451-.481-.819-1.383-1.298-2.331-1.237h-.432c-.78.012-1.547.199-2.245.547-.295.646-.561,1.298-.8,1.957l.086.087c.24-.053.484-.082.729-.087.882.067,1.69.52,2.207,1.238-1.349.423-2.759.621-4.173.585h-.816c-.689.071-1.356-.266-1.707-.864-.421-1.067-.644-2.201-.658-3.348-.124-1.657-.298-3.623-.523-5.9h-.25l-1.006,1.756c.224,2.226.382,3.985.475,5.277.046.962.173,1.918.379,2.859.185.729.632,1.365,1.257,1.785.556.377,1.21.586,1.882.6l.018.018h.442c1.982.022,3.933-.501,5.638-1.512.019,0,.1.083.23.249.505.845,1.516,1.267,3.033,1.266h3.3c.594-1.149.913-2.42.93-3.713-.034-1.351-.188-2.696-.46-4.02l.239.115.106-.029.94-1.89v-.153l-1.219-.806c-1.208-.697-1.812-1.324-1.813-1.88" fill="#fff"/>
      <path id="bm" data-name="Path 241" d="M156.98,26.947h-.335l-1.124,2.284c.602,3.301.987,6.637,1.152,9.988h.336c.505-.982.851-2.038,1.026-3.128-.177-3.065-.529-6.118-1.055-9.143" fill="#fff"/>
      <path id="bn" data-name="Path 242" d="M193.745,57.793s4.036,4.4,4.169,4.555c1.112-1.529,2.415-2.91,3.877-4.11l-3.414-3.553,3.467-3.278s-3.586-4.612-3.9-5.649c-.006-.019-.026-.017-.027,0-.146,2.592-3.93,5.305-3.93,5.305l3.153,3.611-3.395,3.119Z" fill="#fff"/>
      <path id="bo" data-name="Path 243" d="M172.72,40.97s-1.789,5.693-1.86,5.888c1.881.198,3.729.635,5.5,1.3l1.37-4.733,4.573,1.364s2.2-5.412,2.94-6.2c.014-.015,0-.031-.016-.022-2.319,1.169-6.559-.751-6.559-.751l-1.551,4.537-4.397-1.383Z" fill="#fff"/>
      <path id="bp" data-name="Path 244" d="M176.776,14.355s-5.823,1.3-6.029,1.334c.768,1.728,1.313,3.546,1.621,5.412l4.784-1.18,1.1,4.642s5.788-.8,6.844-.556c.02,0,.027-.014.011-.025-2.172-1.424-2.63-6.056-2.63-6.056l-4.7.925-1.001-4.496Z" fill="#fff"/>
      <path id="bq" data-name="Path 245" d="M201.858,4.555s-4.035-4.396-4.173-4.555c-1.112,1.529-2.415,2.91-3.877,4.11l3.414,3.553-3.467,3.278s3.586,4.612,3.9,5.649c.006.018.026.017.027,0,.146-2.592,3.93-5.305,3.93-5.305l-3.153-3.611,3.399-3.119Z" fill="#fff"/>
      <path id="br" data-name="Path 246" d="M222.882,21.377s1.788-5.693,1.859-5.888c-1.881-.198-3.729-.635-5.5-1.3l-1.37,4.733-4.573-1.364s-2.2,5.412-2.941,6.2c-.013.015,0,.031.016.022,2.319-1.169,6.56.751,6.56.751l1.551-4.537,4.398,1.383Z" fill="#fff"/>
      <path id="bs" data-name="Path 247" d="M218.826,47.996s5.824-1.3,6.029-1.334c-.768-1.728-1.313-3.546-1.621-5.412l-4.784,1.18-1.1-4.642s-5.787.8-6.844.556c-.019,0-.027.014-.011.025,2.172,1.424,2.629,6.056,2.629,6.056l4.7-.925,1.002,4.496Z" fill="#fff"/>
      <path id="bt" data-name="Path 248" d="M188.805,2.493h0c.237.073.438.458.605,1.156.219.672.225,1.062.018,1.171l-.791-.372c-.406-.242-.904-.274-1.338-.086-.727.381-.54,2.003.561,4.865,1.101,2.862,1.509,4.336,1.222,4.421-.312.164-.96-.25-1.943-1.242-1.032-1.175-2.402-2.003-3.923-2.368,0,.147-.025.292-.072.431-.129.133-.645.191-1.55.173-.905-.018-1.463-.167-1.676-.448-.882-1.307-.985-2.137-.31-2.49,1.221-.705,3.233-.089,6.037,1.85.594.528,1.217,1.022,1.867,1.479-.517-1.368-.983-2.762-1.4-4.183-.824-2.583-.78-4.081.131-4.492.828-.351,1.77-.3,2.556.136" fill="#fff"/>
      <path id="bu" data-name="Path 249" d="M168.438,25.447h0c.181-.168.616-.15,1.305.054.69.146,1.032.335,1.022.57l-.717.5c-.413.23-.689.645-.743,1.115-.033.82,1.465,1.469,4.494,1.946s4.509.861,4.439,1.152c-.014.352-.696.706-2.047,1.061-1.534.306-2.936,1.08-4.013,2.214.126.074.24.168.337.278.052.179-.156.655-.625,1.428s-.877,1.182-1.226,1.227c-1.573.111-2.344-.214-2.313-.977,0-1.409,1.54-2.843,4.621-4.3.754-.25,1.493-.543,2.214-.877-1.443-.235-2.883-.529-4.321-.882-2.647-.579-3.921-1.366-3.823-2.361.112-.892.628-1.684,1.4-2.145" fill="#fff"/>
      <path id="bv" data-name="Path 250" d="M178.365,53.843h0c-.055-.241.179-.608.7-1.1.472-.525.805-.725,1-.6.292.187.026.29.073.871-.005.473.218.92.6,1.2.693.439,2.004-.534,3.932-2.919,1.928-2.385,3.001-3.475,3.218-3.27.297.189.262.956-.105,2.3-.501,1.481-.532,3.081-.088,4.581.127-.072.266-.123.409-.152.18.045.488.463.925,1.255.437.792.586,1.351.449,1.676-.691,1.418-1.357,1.923-2,1.515-1.22-.705-1.692-2.756-1.417-6.153.161-.778.277-1.565.348-2.357-.926,1.133-1.901,2.233-2.925,3.3-1.825,2.005-3.144,2.715-3.956,2.132-.718-.541-1.146-1.382-1.161-2.281" fill="#fff"/>
      <path id="bw" data-name="Path 251" d="M207.595,59.266h0c-.237-.072-.439-.457-.606-1.156-.219-.672-.224-1.062-.017-1.17l.791.373c.406.241.904.273,1.337.085.728-.381.541-2.003-.561-4.865s-1.509-4.336-1.222-4.421c.311-.164.959.25,1.943,1.243,1.032,1.175,2.402,2.002,3.923,2.367,0-.146.025-.291.072-.43.129-.133.646-.191,1.55-.173s1.463.167,1.676.448c.882,1.307.985,2.137.31,2.491-1.221.705-3.233.088-6.037-1.85-.594-.527-1.217-1.021-1.867-1.478.517,1.367.983,2.761,1.4,4.183.823,2.583.78,4.08-.131,4.491-.827.351-1.771.301-2.556-.136" fill="#fff"/>
      <path id="bx" data-name="Path 252" d="M227.502,36.903h0c-.181.169-.616.151-1.305-.054-.69-.145-1.032-.335-1.021-.57l.717-.5c.412-.231.689-.646.743-1.115.033-.821-1.465-1.47-4.494-1.947-3.029-.477-4.509-.861-4.439-1.152.014-.351.696-.705,2.047-1.061,1.534-.306,2.935-1.08,4.012-2.214-.126-.074-.24-.168-.336-.278-.052-.179.156-.654.624-1.427.468-.773.877-1.182,1.226-1.229,1.573-.111,2.344.215,2.313.978,0,1.41-1.54,2.843-4.621,4.3-.754.25-1.493.543-2.214.878,1.443.235,2.883.528,4.321.881,2.647.58,3.922,1.367,3.823,2.361-.111.893-.628,1.684-1.4,2.145" fill="#fff"/>
      <path id="by" data-name="Path 253" d="M217.982,8.633h0c.055.241-.178.608-.7,1.1-.472.525-.808.725-1,.6,0,0-.026-.291-.074-.871.006-.472-.215-.919-.595-1.2-.694-.439-2.005.533-3.933,2.918-1.928,2.385-3.001,3.474-3.218,3.269-.297-.188-.262-.955.105-2.3.501-1.482.532-3.082.088-4.582-.127.072-.265.124-.409.153-.18-.045-.488-.464-.925-1.256-.437-.792-.586-1.351-.449-1.676.691-1.417,1.357-1.922,2-1.515,1.22.705,1.692,2.756,1.417,6.153-.161.778-.277,1.565-.348,2.357.926-1.133,1.901-2.233,2.925-3.3,1.825-2.003,3.144-2.714,3.956-2.132.718.541,1.146,1.382,1.161,2.281" fill="#fff"/>
      <path id="bz" data-name="Path 254" d="M210.055,35.113c-.466-.263-.959-.476-1.47-.636-1.306-.415-2.692-.518-4.045-.3-.596.096-1.182.247-1.751.451l-.175.062c-.316.121-.625.259-.927.412-.265.134-.527.281-.791.438-.61.37-1.198.774-1.763,1.21-.332-2.797-.425-5.618-.278-8.431.1-.3.334-.347.435-.669.047-.185.02-.38-.074-.546,1.119.422,1.791,1.464,1.836,3.373.941-1.311.641-3.136-.669-4.076-.022-.016-.043-.031-.066-.046,1.207.313,2.221.92,2.434,3.473.879-2.377-.195-4.395-2.2-4.846,1.775.132,3,1.16,3.488,3.375.579-1.934-.519-3.972-2.453-4.551-.279-.084-.568-.134-.859-.149,1.188-.322,2.457.037,3.3.934-.57-1.455-2.098-2.296-3.632-2,.193-.384.863-.662,2.04-.828-.953-.431-2.064-.316-2.909.3.175-.562.562-1.035,1.078-1.318-.809.006-1.554.441-1.957,1.142.032-.559-.102-1.116-.384-1.6-.145.213-.245.452-.293.705-.057.297-.087.598-.091.9-.404-.701-1.148-1.135-1.957-1.142.516.283.903.756,1.078,1.318-.845-.616-1.956-.731-2.909-.3,1.177.166,1.847.444,2.04.828-1.534-.296-3.061.545-3.631,2,.843-.897,2.112-1.256,3.3-.934-2.017.106-3.566,1.827-3.46,3.844.015.29.065.578.148.856.491-2.215,1.713-3.243,3.488-3.375-2.008.451-3.081,2.469-2.2,4.846.213-2.553,1.227-3.16,2.433-3.473-1.336.904-1.686,2.72-.782,4.056.015.022.03.044.046.066.046-1.909.717-2.951,1.837-3.373-.095.165-.122.361-.074.546.1.324.339.366.437.674.144,2.812.05,5.63-.28,8.426-1.057-.848-2.23-1.542-3.482-2.06-.145-.054-.287-.1-.428-.15-1.059-.354-2.173-.512-3.289-.467-1.181.047-2.339.34-3.4.859-.132.066-.243.127-.33.177-.015.01-.019.031-.009.046.008.012.023.017.037.013.1-.032.2-.06.3-.088,1.103-.318,2.256-.431,3.4-.333,1.138.107,2.25.406,3.289.885,1.414.67,2.73,1.527,3.915,2.548-1.237,1.192-2.544,2.31-3.915,3.346-.043.024-.085.048-.125.069-.297-.41-.87-.501-1.279-.204-.176.128-.301.314-.353.526-.072.277-.006.571.178.79.415.423,1.061.518,1.579.23,1.148-.483,2.578-2,4.334-3.608.146-.134.294-.269.445-.4.151.133.3.267.443.4.8.727,1.524,1.437,2.19,2.041.274.248.537.479.791.686.341.29.709.546,1.1.764.524.388,1.244.372,1.751-.038.028-.023.055-.047.081-.072.166-.228.23-.513.179-.79-.083-.337-.348-.599-.686-.678-.358-.082-.731.058-.946.356-.131-.069-.258-.146-.379-.231-.383-.276-.75-.573-1.1-.889-.249-.217-.513-.456-.791-.708-.541-.492-1.135-1.037-1.768-1.587.566-.475,1.156-.921,1.768-1.336.259-.174.521-.342.791-.5.357-.213.724-.409,1.1-.59.564-.272,1.15-.496,1.751-.67,1.313-.382,2.695-.468,4.045-.251.488.078.97.191,1.442.339.017.007.036-.002.043-.019.006-.015,0-.032-.014-.04" fill="#fff"/>
    </g>
  </g>
</svg>