<svg id="Group_2" data-name="Group 2" xmlns="http://www.w3.org/2000/svg" width="115.525" height="39.568" viewBox="0 0 115.525 39.568">
  <g id="Group_3" data-name="Group 3">
    <path id="Path_1" data-name="Path 1" d="M1.539,16.011H2.852a2.114,2.114,0,0,0,1.341-.353,1.811,1.811,0,0,0,.565-1.186l.071-.014a4.443,4.443,0,0,0,.431.748,1.872,1.872,0,0,0,.494.473,1.91,1.91,0,0,0,.628.254,3.837,3.837,0,0,0,.819.078L7.215,16v.014H19.3a2.226,2.226,0,0,0,1.4-.367,2.022,2.022,0,0,0,.628-1.243h.085a1.889,1.889,0,0,0,.755,1.221,2.858,2.858,0,0,0,1.617.389h4.123a3.976,3.976,0,0,0,2.584-.706,2.837,2.837,0,0,0,.847-2.3,3.146,3.146,0,0,0-.8-2.28A3.044,3.044,0,0,0,28.253,9.9a4.9,4.9,0,0,0-1.271.163,3.979,3.979,0,0,0-1.172.536,5.4,5.4,0,0,0-1.094.988A9.964,9.964,0,0,0,23.664,13.1l-.692,1.186a.986.986,0,0,1-.466-.988V12.283H21.278V13.3q0,1.115-1.172,1.115H7.173a1.174,1.174,0,0,1-.445-.078.959.959,0,0,1-.36-.275,2.5,2.5,0,0,1-.332-.529,8.006,8.006,0,0,1-.346-.854l-1.44-4-1.341.48L4.222,12.82q.127.367.2.6a1.391,1.391,0,0,1,.071.388.477.477,0,0,1-.282.48,2.829,2.829,0,0,1-1.031.127H1.257v-1H0v1.031A1.549,1.549,0,0,0,.409,15.63a1.594,1.594,0,0,0,1.13.381m23.1-2.617a6.039,6.039,0,0,1,.727-.937,3.15,3.15,0,0,1,.755-.582,2.924,2.924,0,0,1,.861-.3,5.944,5.944,0,0,1,1.059-.085h.424q1.708,0,1.708,1.532a1.138,1.138,0,0,1-.537,1.093,3.729,3.729,0,0,1-1.723.3h-3.84l-.042-.085Z" transform="translate(0 -6.488)" fill="#fff"/>
    <path id="Path_2" data-name="Path 2" d="M122.875,24.576h.551a4.219,4.219,0,0,0,1.539-.254,3.1,3.1,0,0,0,1.094-.706,3.284,3.284,0,0,0,.7-1.073,5.111,5.111,0,0,0,.338-1.356h4A3.109,3.109,0,0,0,132.251,21a1.813,1.813,0,0,0,.777-.621l3.784,1.059,1.059-1.553v-.551a5.128,5.128,0,0,0-.621-2.746,1.986,1.986,0,0,0-1.779-.981,2.1,2.1,0,0,0-1.5.529,3.792,3.792,0,0,0-.9,1.405l-.4,1.017a2.14,2.14,0,0,1-.459.8,1.114,1.114,0,0,1-.784.233H127.1q-.028-.339-.077-.72t-.12-.791l-.2-1.186-1.214.226.3,1.709q.071.41.113.819a7.666,7.666,0,0,1,.042.791,3.97,3.97,0,0,1-.127,1.045,1.866,1.866,0,0,1-1.2,1.313,3.387,3.387,0,0,1-1.2.184h-.537Zm11.042-6.283a2.169,2.169,0,0,1,.5-.8,1.109,1.109,0,0,1,.8-.29,1.209,1.209,0,0,1,1.059.565,2.775,2.775,0,0,1,.381,1.567v.4l-2.965-.833Z" transform="translate(-91.812 -11.664)" fill="#fff"/>
    <path id="Path_3" data-name="Path 3" d="M7.687,48.5a.7.7,0,0,0-.515.191,1.073,1.073,0,0,0,0,1.221.682.682,0,0,0,.515.2H7.9a.706.706,0,0,0,.523-.2,1.042,1.042,0,0,0,0-1.221A.721.721,0,0,0,7.9,48.5Z" transform="translate(-5.216 -36.238)" fill="#fff"/>
    <path id="Path_4" data-name="Path 4" d="M15.774,48.5h-.212a.7.7,0,0,0-.515.191,1.073,1.073,0,0,0,0,1.221.682.682,0,0,0,.515.2h.212a.706.706,0,0,0,.522-.2,1.042,1.042,0,0,0,0-1.221.721.721,0,0,0-.522-.191" transform="translate(-11.1 -36.238)" fill="#fff"/>
    <path id="Path_5" data-name="Path 5" d="M2.13,65.871a1.9,1.9,0,0,0,1.186-.346,2.042,2.042,0,0,0,.664-1.137H4.05v.169A2.172,2.172,0,0,0,4.608,66.2a2.628,2.628,0,0,0,1.842.53H14a2.229,2.229,0,0,0,1.4-.367,2.022,2.022,0,0,0,.628-1.243h.085a1.892,1.892,0,0,0,.755,1.222,2.86,2.86,0,0,0,1.617.388l.014-.014v.014h1.511a5.593,5.593,0,0,0,1.377-.141,1.965,1.965,0,0,0,.953-.579l.381.226a6.159,6.159,0,0,0,1.024.508,2.473,2.473,0,0,0,.84.155q1.327,0,1.567-1.666h.085a2.052,2.052,0,0,0,.649,1.253,2.122,2.122,0,0,0,1.4.413,1.922,1.922,0,0,0,1.574-.642,2.9,2.9,0,0,0,.529-1.885q0-.311-.028-.692t-.084-.8l-.113-.734-1.214.185.127.752a9.514,9.514,0,0,1,.127,1.3q0,.922-.8.922h-.212a.766.766,0,0,1-.664-.291,1.733,1.733,0,0,1-.212-.988V63H26.091v1.01a1.368,1.368,0,0,1-.3,1,1.3,1.3,0,0,1-.932.288,3.107,3.107,0,0,1-.8-.106,3.509,3.509,0,0,1-.819-.346l-.1-.056.649-1.257L22.731,63l-.579,1.172a2.888,2.888,0,0,1-.283.466,1.313,1.313,0,0,1-.311.3,1.051,1.051,0,0,1-.4.155,2.876,2.876,0,0,1-.522.042h-2.33a.98.98,0,0,1-1.1-1.115V61.875H15.981v2.146q0,1.115-1.172,1.115H6.324a1.35,1.35,0,0,1-.8-.191.825.825,0,0,1-.254-.7V59.39H3.98v.749l-1.5.791a9.617,9.617,0,0,0-1.052.642,3.978,3.978,0,0,0-.741.671A2.413,2.413,0,0,0,.252,63a2.647,2.647,0,0,0-.141.883,1.985,1.985,0,0,0,.523,1.469,2.024,2.024,0,0,0,1.5.522m-.522-3.113a5.59,5.59,0,0,1,1.1-.7l1.271-.649v1.906a.805.805,0,0,1-.346.748,2.43,2.43,0,0,1-1.193.212,1.656,1.656,0,0,1-.911-.184.673.673,0,0,1-.261-.593.957.957,0,0,1,.339-.741" transform="translate(-0.083 -44.376)" fill="#fff"/>
    <path id="Path_6" data-name="Path 6" d="M62.758,93.628a.7.7,0,0,0-.515.191,1.073,1.073,0,0,0,0,1.221.682.682,0,0,0,.515.2h.212a.706.706,0,0,0,.522-.2,1.041,1.041,0,0,0,0-1.221.72.72,0,0,0-.522-.191Z" transform="translate(-46.365 -69.959)" fill="#fff"/>
    <path id="Path_7" data-name="Path 7" d="M138.65,67.211a9.382,9.382,0,0,1-2.33-.356l-3.135-.813q-.551-.143-.8-.186a2.587,2.587,0,0,0-.43-.043,1.418,1.418,0,0,0-1.052.376,1.559,1.559,0,0,0-.374,1.143v1.093h1.257V67.282l2.584.636,2.174.466v.071l-.974.466a13.112,13.112,0,0,1-1.285.544,7.815,7.815,0,0,1-1.13.31,8.04,8.04,0,0,1-1.129.134q-.579.028-1.271.028H129.4a5.506,5.506,0,0,0-.727-2.965,2.2,2.2,0,0,0-1.941-1.059,2.341,2.341,0,0,0-1.087.254,2.735,2.735,0,0,0-.854.685,3.219,3.219,0,0,0-.565,1.024,3.865,3.865,0,0,0-.2,1.271,2.371,2.371,0,0,0,.628,1.765,2.411,2.411,0,0,0,1.772.621h1.694a2.279,2.279,0,0,1-1.1,1.32,4.722,4.722,0,0,1-2.316.473h-.819v1.6h.875a4.748,4.748,0,0,0,3.015-.882,4.2,4.2,0,0,0,1.475-2.506h1.511q.65,0,1.236-.05a6.385,6.385,0,0,0,1.207-.226,8.82,8.82,0,0,0,1.327-.508,15.744,15.744,0,0,0,1.61-.9l1.666-1.045h1.1v-1.6Zm-10.42,2.725h-1.751a1.634,1.634,0,0,1-.96-.234.872.872,0,0,1-.325-.76,1.436,1.436,0,0,1,.381-1.036,1.361,1.361,0,0,1,1.031-.4,1.411,1.411,0,0,1,1.172.59,2.515,2.515,0,0,1,.452,1.569Z" transform="translate(-92.564 -49.175)" fill="#fff"/>
    <path id="Path_8" data-name="Path 8" d="M8.627,99.262H8.415a.7.7,0,0,0-.515.191,1.073,1.073,0,0,0,0,1.221.682.682,0,0,0,.515.2h.212a.706.706,0,0,0,.523-.2,1.042,1.042,0,0,0,0-1.221.721.721,0,0,0-.523-.191" transform="translate(-5.76 -74.169)" fill="#fff"/>
    <path id="Path_9" data-name="Path 9" d="M16.29,99.262a.7.7,0,0,0-.515.191,1.073,1.073,0,0,0,0,1.221.682.682,0,0,0,.515.2H16.5a.706.706,0,0,0,.522-.2,1.042,1.042,0,0,0,0-1.221.721.721,0,0,0-.522-.191Z" transform="translate(-11.644 -74.169)" fill="#fff"/>
    <path id="Path_10" data-name="Path 10" d="M67.662,144.391H67.45a.7.7,0,0,0-.515.191,1.073,1.073,0,0,0,0,1.221.683.683,0,0,0,.515.2h.212a.707.707,0,0,0,.522-.2,1.041,1.041,0,0,0,0-1.221.721.721,0,0,0-.522-.191" transform="translate(-49.871 -107.889)" fill="#fff"/>
    <path id="Path_11" data-name="Path 11" d="M59.787,144.391h-.212a.7.7,0,0,0-.515.191,1.073,1.073,0,0,0,0,1.221.683.683,0,0,0,.515.2h.212a.707.707,0,0,0,.522-.2,1.042,1.042,0,0,0,0-1.221.721.721,0,0,0-.522-.191" transform="translate(-43.987 -107.889)" fill="#fff"/>
    <path id="Path_12" data-name="Path 12" d="M25.477,111.876l-1.228.2.226,1.229q.1.607.134.974t.035.607a.831.831,0,0,1-.4.8,3.011,3.011,0,0,1-1.356.219H19.039a.98.98,0,0,1-1.1-1.115v-2.146H16.709v2.146q0,1.115-1.172,1.115H7.052a1.35,1.35,0,0,1-.8-.191.825.825,0,0,1-.254-.7v-4.857H4.708v.749l-1.5.791a9.642,9.642,0,0,0-1.052.642,3.986,3.986,0,0,0-.741.671,2.414,2.414,0,0,0-.438.755,2.647,2.647,0,0,0-.141.883,1.985,1.985,0,0,0,.523,1.469,2.025,2.025,0,0,0,1.5.522,1.9,1.9,0,0,0,1.186-.346,2.042,2.042,0,0,0,.664-1.137h.071v.169a2.173,2.173,0,0,0,.558,1.645,2.628,2.628,0,0,0,1.842.53h7.554a2.227,2.227,0,0,0,1.4-.367,2.021,2.021,0,0,0,.628-1.243h.085a1.891,1.891,0,0,0,.756,1.221,2.857,2.857,0,0,0,1.617.389l.014-.014v.014h3.657a3.255,3.255,0,0,0,2.217-.642,2.507,2.507,0,0,0,.72-1.97,12.773,12.773,0,0,0-.169-1.779Zm-20.77,2.2a.805.805,0,0,1-.346.748,2.43,2.43,0,0,1-1.193.212,1.655,1.655,0,0,1-.911-.184A.672.672,0,0,1,2,114.262a.958.958,0,0,1,.339-.741,5.586,5.586,0,0,1,1.1-.7l1.271-.649Z" transform="translate(-0.627 -82.306)" fill="#fff"/>
    <path id="Path_13" data-name="Path 13" d="M92.684,144.391h-.212a.7.7,0,0,0-.515.191,1.073,1.073,0,0,0,0,1.221.683.683,0,0,0,.515.2h.212a.707.707,0,0,0,.523-.2,1.042,1.042,0,0,0,0-1.221.721.721,0,0,0-.523-.191" transform="translate(-68.568 -107.889)" fill="#fff"/>
    <path id="Path_14" data-name="Path 14" d="M116.346,105.6a1.222,1.222,0,0,1-.247.847,1.147,1.147,0,0,1-.868.268h-2.6l-.014-.028q.424-.339.713-.6a3.361,3.361,0,0,0,.473-.515,1.8,1.8,0,0,0,.268-.537,2.313,2.313,0,0,0,.085-.664,1.9,1.9,0,0,0-.727-1.61,3.592,3.592,0,0,0-2.182-.551,6.638,6.638,0,0,0-2.866.673v1.628l1.723,2.146-.014.057H104.98q-.029-.339-.078-.72t-.12-.791l-.2-1.186-1.215.226.3,1.709q.071.41.113.819a7.666,7.666,0,0,1,.042.791,3.973,3.973,0,0,1-.127,1.045,1.866,1.866,0,0,1-1.2,1.313,3.386,3.386,0,0,1-1.2.184h-.537v1.6h.551a4.216,4.216,0,0,0,1.539-.254,3.1,3.1,0,0,0,1.094-.706,3.284,3.284,0,0,0,.7-1.073,5.121,5.121,0,0,0,.339-1.356h3.939a4.862,4.862,0,0,0,1.25-.163,3.7,3.7,0,0,0,1.151-.529,3.647,3.647,0,0,0,1.186.529,5.33,5.33,0,0,0,1.3.163h1.426a2.359,2.359,0,0,0,1.878-.657,3.105,3.105,0,0,0,.565-2.054V97.865h-1.327Zm-4.462.436-.452.383-1.934-2.314v-.057a6.515,6.515,0,0,1,1.737-.241q1.765,0,1.765.852a.855.855,0,0,1-.282.639q-.282.27-.833.738" transform="translate(-75.286 -73.125)" fill="#fff"/>
    <rect id="Rectangle_1" data-name="Rectangle 1" width="1.313" height="10.448" transform="translate(44.336 24.74)" fill="#fff"/>
    <path id="Path_15" data-name="Path 15" d="M313.4,121.442a.367.367,0,0,1-.367.369h-6.608a.359.359,0,0,1-.26-.109l-7.554-7.554-14.233-.028h-.008l-1.009,0h-.008l-7.478-.015c.291-.25.592-.493.9-.733h0l7.283.013h.008l1.009,0h.008l13.682.028a.368.368,0,0,1,.258.109l7.554,7.554h6.457a.367.367,0,0,1,.367.367" transform="translate(-206.132 -84.71)" fill="#fff"/>
    <path id="Path_16" data-name="Path 16" d="M310.5,136.984a.367.367,0,0,0,.26-.108l2.572-2.572a.368.368,0,1,0-.52-.52l-2.464,2.464H299.251a.368.368,0,1,0,0,.735Z" transform="translate(-223.325 -99.883)" fill="#fff"/>
    <path id="Path_17" data-name="Path 17" d="M256.49,111.549a.368.368,0,1,0,0,.735h5.516a.368.368,0,0,0,.265-.113l10.578-11.032a.368.368,0,0,0-.531-.509l-10.469,10.919Z" transform="translate(-191.374 -75.106)" fill="#fff"/>
    <path id="Path_18" data-name="Path 18" d="M297.962,97.57a.368.368,0,1,0,0-.735h-5.516a.367.367,0,0,0-.265.113L281.6,107.981a.368.368,0,0,0,.531.509L292.6,97.57Z" transform="translate(-210.338 -72.355)" fill="#fff"/>
    <path id="Path_19" data-name="Path 19" d="M309.4,54.039a.369.369,0,0,1-.369.367h-9.9l-7.554,7.554a.368.368,0,0,1-.258.109l-24.764.048-.642-.733,25.252-.051,7.554-7.554a.359.359,0,0,1,.26-.109h10.049a.37.37,0,0,1,.369.369" transform="translate(-198.69 -40.102)" fill="#fff"/>
    <path id="Path_20" data-name="Path 20" d="M300.3,36.587a.371.371,0,0,1-.369.369h-18.94l-.192-.207-.028-.03c-.142-.152-.293-.321-.458-.5H299.93a.369.369,0,0,1,.369.367" transform="translate(-209.45 -27.064)" fill="#fff"/>
    <path id="Path_21" data-name="Path 21" d="M310.5,53.671H299.251a.368.368,0,1,0,0,.735h11.093l2.464,2.464a.368.368,0,1,0,.52-.52l-2.572-2.572a.367.367,0,0,0-.26-.108" transform="translate(-223.325 -40.103)" fill="#fff"/>
    <path id="Path_22" data-name="Path 22" d="M422.867,142.428a1.471,1.471,0,1,0-1.471-1.471,1.473,1.473,0,0,0,1.471,1.471m0-2.206a.736.736,0,1,1-.735.735.736.736,0,0,1,.735-.735" transform="translate(-314.867 -104.224)" fill="#fff"/>
    <path id="Path_23" data-name="Path 23" d="M368.1,97h19.9a.368.368,0,1,0,0-.735H368.1Z" transform="translate(-275.041 -71.929)" fill="#fff"/>
    <path id="Path_24" data-name="Path 24" d="M446.817,94.843a1.471,1.471,0,1,0-1.471-1.471,1.473,1.473,0,0,0,1.471,1.471m0-2.206a.736.736,0,1,1-.735.735.736.736,0,0,1,.735-.735" transform="translate(-332.763 -68.668)" fill="#fff"/>
    <path id="Path_25" data-name="Path 25" d="M353.691,129.131a1.471,1.471,0,1,0-1.471-1.471,1.473,1.473,0,0,0,1.471,1.471m0-2.206a.736.736,0,1,1-.735.735.736.736,0,0,1,.735-.735" transform="translate(-263.179 -94.288)" fill="#fff"/>
    <path id="Path_26" data-name="Path 26" d="M291.628,142.428a1.471,1.471,0,1,0-1.471-1.471,1.473,1.473,0,0,0,1.471,1.471m0-2.206a.736.736,0,1,1-.735.735.736.736,0,0,1,.735-.735" transform="translate(-216.805 -104.224)" fill="#fff"/>
    <path id="Path_27" data-name="Path 27" d="M436.48,52.25a1.471,1.471,0,1,0-1.471-1.471,1.473,1.473,0,0,0,1.471,1.471m0-2.206a.736.736,0,1,1-.735.735.736.736,0,0,1,.735-.735" transform="translate(-325.039 -36.843)" fill="#fff"/>
    <path id="Path_28" data-name="Path 28" d="M258.492,1.421a.368.368,0,0,0-.52.52l.771.771a.369.369,0,0,0,.26.108H286.95a.368.368,0,1,0,0-.735H259.155Z" transform="translate(-192.676 -0.981)" fill="#fff"/>
    <path id="Path_29" data-name="Path 29" d="M372.934,0a1.471,1.471,0,0,0-1.423,1.1,1.382,1.382,0,0,0-.048.369,1.35,1.35,0,0,0,.048.367A1.471,1.471,0,1,0,372.934,0m0,2.207a.736.736,0,1,1,.736-.736.738.738,0,0,1-.736.736" transform="translate(-277.557)" fill="#fff"/>
    <path id="Path_30" data-name="Path 30" d="M346.9,91.9a1.471,1.471,0,1,0,1.471,1.471A1.473,1.473,0,0,0,346.9,91.9m0,2.206a.736.736,0,1,1,.735-.735.736.736,0,0,1-.735.735" transform="translate(-258.108 -68.668)" fill="#fff"/>
    <path id="Path_31" data-name="Path 31" d="M341.312,23.213h0a.367.367,0,0,1-.52,0l-3.512-3.507-10.59-.058a.369.369,0,0,1-.367-.369v0a.364.364,0,0,1,.369-.364l10.742.058a.375.375,0,0,1,.258.109l3.619,3.615a.367.367,0,0,1,0,.519" transform="translate(-243.829 -14.132)" fill="#fff"/>
    <path id="Path_32" data-name="Path 32" d="M386.924,31.258v.005a.368.368,0,0,1-.364.369l-5.577.058a.363.363,0,0,1-.263-.106l-2.4-2.4a.367.367,0,0,1,.52-.52l2.29,2.29,5.423-.058a.367.367,0,0,1,.372.362" transform="translate(-282.601 -21.338)" fill="#fff"/>
    <path id="Path_33" data-name="Path 33" d="M319.064,17.488a1.471,1.471,0,1,0-1.471-1.471,1.473,1.473,0,0,0,1.471,1.471m0-2.206a.735.735,0,1,1-.735.735.736.736,0,0,1,.735-.735" transform="translate(-237.306 -10.869)" fill="#fff"/>
    <path id="Path_34" data-name="Path 34" d="M411.231,36.384a1.471,1.471,0,1,0-1.471-1.471,1.473,1.473,0,0,0,1.471,1.471m0-2.206a.736.736,0,1,1-.735.735.736.736,0,0,1,.735-.735" transform="translate(-306.173 -24.988)" fill="#fff"/>
    <path id="Path_35" data-name="Path 35" d="M356.459,33.322a1.471,1.471,0,1,0,1.471-1.471,1.473,1.473,0,0,0-1.471,1.471m2.206,0a.735.735,0,1,1-.735-.735.736.736,0,0,1,.735.735" transform="translate(-266.346 -23.799)" fill="#fff"/>
    <path id="Path_36" data-name="Path 36" d="M357.93,31.852a1.471,1.471,0,1,0,1.471,1.471,1.473,1.473,0,0,0-1.471-1.471m0,2.206a.735.735,0,1,1,.735-.735.736.736,0,0,1-.735.735" transform="translate(-266.346 -23.8)" fill="#fff"/>
    <path id="Path_37" data-name="Path 37" d="M353.691,62.6a1.471,1.471,0,1,0,1.471,1.471,1.473,1.473,0,0,0-1.471-1.471m0,2.206a.735.735,0,1,1,.735-.735.736.736,0,0,1-.735.735" transform="translate(-263.179 -46.778)" fill="#fff"/>
    <path id="Path_38" data-name="Path 38" d="M291.628,52.25a1.471,1.471,0,1,0-1.471-1.471,1.473,1.473,0,0,0,1.471,1.471m0-2.206a.736.736,0,1,1-.735.735.736.736,0,0,1,.735-.735" transform="translate(-216.805 -36.843)" fill="#fff"/>
    <path id="Path_39" data-name="Path 39" d="M226.642,29.606l.105.123a1.659,1.659,0,0,0-.144.105c-.072.054-.144.108-.149.116-.57.432-1.128.876-1.673,1.339q-.432.366-.848.748a29.335,29.335,0,0,0-4.314,4.834,10.192,10.192,0,0,0-2.215,5.473c0,.026-.013.039-.028.039a.038.038,0,0,1-.033-.031c-.36-1.185-2.508-4.317-4.646-7.262-.347-.475-.689-.946-1.028-1.4-.807-1.1-1.573-2.11-2.187-2.919-.5-.655-.9-1.174-1.143-1.493l-.275-.357,6.912-6.535.38-.362.948-.9-6.154-6.4-.252-.262-1.711-1.781a42.383,42.383,0,0,0,3.839-3.487l.357-.362a57.318,57.318,0,0,0,4.631-5.394c.09-.121.18-.242.267-.362.044-.054.085-.108.123-.164l.146.164c.08.09.193.211.329.362.91,1,2.971,3.251,4.934,5.394.113.121.224.239.334.362l2.089,2.277.684.748c.162.175.311.339.45.491.123.131.234.252.334.36l.614.671-4.677,4.294-1.583,1.454-1.806,1.657.768.879.316.362,1.231,1.411.653.745Z" transform="translate(-155.777 -2.814)" fill="#fff"/>
  </g>
</svg>
