<?xml version="1.0" encoding="UTF-8"?>
<svg id="b" data-name="Layer 2" xmlns="http://www.w3.org/2000/svg" width="68.765" height="53.987" viewBox="0 0 68.765 53.987">
  <g id="c" data-name="UI Shell - Footer">
    <g>
      <path id="d" data-name="Path 1" d="M2.291,10.873h1.949c.703.054,1.404-.131,1.99-.524.49-.461.789-1.089.838-1.76l.105-.021c.176.39.39.762.639,1.11.199.276.448.514.733.7.286.18.601.308.932.377.4.082.807.121,1.215.116l.021-.02v.02h17.933c.736.057,1.47-.135,2.084-.545.519-.485.849-1.138.932-1.844h.126c.12.729.522,1.381,1.12,1.814.725.426,1.56.627,2.4.577h6.117c1.361.105,2.716-.266,3.834-1.048.915-.889,1.377-2.145,1.257-3.415.072-1.24-.354-2.458-1.183-3.383-.913-.864-2.145-1.308-3.4-1.226-.637-.003-1.271.078-1.886.241-.619.17-1.207.44-1.739.8-.606.412-1.152.906-1.623,1.467-.589.701-1.112,1.455-1.561,2.252l-1.032,1.756c-.505-.304-.778-.882-.692-1.466v-1.509h-1.822v1.509c0,1.103-.58,1.655-1.739,1.655H10.65c-.225.005-.45-.034-.66-.115-.208-.091-.391-.231-.534-.408-.196-.24-.361-.504-.492-.785-.195-.412-.366-.836-.513-1.268L6.314,0l-1.99.717,1.948,5.426c.125.363.223.66.293.89.06.186.094.38.1.576.027.3-.139.584-.414.708-.494.157-1.013.221-1.53.189H1.873v-1.489H.008v1.53c-.055.646.166,1.285.607,1.76.464.398,1.065.601,1.676.566M36.564,6.99c.313-.498.675-.963,1.079-1.39.328-.343.706-.634,1.121-.863.4-.213.832-.362,1.278-.442.519-.089,1.045-.131,1.571-.126h.629c1.69,0,2.535.758,2.535,2.273.069.65-.242,1.281-.8,1.621-.805.348-1.681.499-2.556.442h-5.7l-.063-.126.906-1.389Z" fill="#fff"/>
      <path id="e" data-name="Path 2" d="M46.096,15.9h.817c.778.017,1.552-.111,2.283-.377.609-.23,1.162-.588,1.623-1.048.447-.457.799-.998,1.037-1.592.258-.644.426-1.321.5-2.011h5.929c.585.019,1.168-.073,1.718-.272.462-.194.861-.513,1.152-.922l5.615,1.571,1.571-2.3v-.817c.079-1.418-.24-2.829-.922-4.075-.546-.933-1.56-1.492-2.64-1.456-.818-.042-1.62.24-2.231.785-.591.587-1.044,1.298-1.327,2.082l-.586,1.509c-.139.439-.371.843-.681,1.183-.33.259-.745.382-1.163.346h-6.432c-.028-.333-.066-.69-.115-1.069-.049-.379-.108-.77-.179-1.173l-.293-1.76-1.8.335.44,2.535c.07.405.126.81.168,1.215.041.39.062.781.063,1.173.006.523-.057,1.044-.188,1.55-.226.909-.896,1.642-1.781,1.948-.572.198-1.176.29-1.781.273h-.8l.003,2.367ZM62.479,6.578c.158-.444.411-.848.742-1.183.322-.295.748-.449,1.184-.43.635-.019,1.233.3,1.571.838.415.702.612,1.511.566,2.325v.586l-4.4-1.236.337-.9Z" fill="#fff"/>
      <path id="f" data-name="Path 3" d="M3.673,14.935c-.283-.014-.559.088-.764.283-.377.545-.377,1.267,0,1.812.202.201.479.307.764.293h.314c.288.013.568-.093.775-.293.391-.541.391-1.271,0-1.812-.21-.194-.489-.296-.775-.283h-.314Z" fill="#fff"/>
      <path id="g" data-name="Path 4" d="M6.942,14.935h-.318c-.283-.015-.56.088-.765.283-.377.545-.377,1.267,0,1.812.202.201.48.308.765.293h.314c.288.013.568-.093.775-.293.391-.541.391-1.271,0-1.812-.21-.194-.489-.296-.775-.283" fill="#fff"/>
      <path id="h" data-name="Path 5" d="M3.046,28.635c.627.03,1.247-.151,1.76-.513.505-.438.852-1.031.985-1.686h.1v.251c-.075.894.226,1.779.831,2.442.78.597,1.756.878,2.734.786h11.208c.736.056,1.47-.136,2.084-.545.519-.485.849-1.138.932-1.844h.126c.121.728.524,1.379,1.121,1.812.725.426,1.561.626,2.4.576l.021-.02v.02h2.242c.687.015,1.373-.056,2.043-.21.544-.144,1.035-.442,1.414-.859l.566.335c.482.298.99.55,1.519.754.399.149.821.227,1.247.231,1.313,0,2.088-.824,2.325-2.471h.126c.091.714.432,1.373.963,1.859.598.443,1.333.66,2.075.613.884.063,1.748-.289,2.336-.953.578-.814.856-1.804.785-2.8,0-.307-.014-.65-.042-1.027s-.07-.775-.125-1.194l-.168-1.09-1.8.274.188,1.115c.107.64.171,1.287.189,1.936,0,.912-.398,1.368-1.194,1.368h-.314c-.38.03-.75-.132-.985-.432-.248-.446-.357-.956-.314-1.465v-1.516h-1.827v1.5c.056.535-.102,1.07-.44,1.488-.388.317-.884.47-1.383.427-.403,0-.805-.053-1.194-.157-.425-.119-.834-.291-1.216-.513l-.146-.084.964-1.865-1.571-.8-.859,1.738c-.118.243-.258.474-.419.691-.128.171-.284.32-.461.44-.178.116-.378.195-.587.231-.256.045-.515.066-.775.063h-3.457c-.796.108-1.528-.449-1.637-1.245-.019-.136-.018-.274.003-.41v-3.18h-1.823v3.184c0,1.103-.579,1.655-1.738,1.655h-12.59c-.418.033-.835-.066-1.194-.283-.282-.265-.422-.648-.377-1.033v-7.21h-1.907v1.11l-2.221,1.174c-.54.284-1.061.602-1.56.953-.407.286-.777.622-1.1,1-.283.331-.502.71-.649,1.12-.144.421-.215.864-.21,1.309-.05.802.23,1.589.775,2.179.604.55,1.405.83,2.22.775M2.27,24.02c.502-.408,1.051-.756,1.634-1.037l1.886-.964v2.828c.044.436-.152.861-.513,1.11-.554.252-1.163.36-1.77.314-.467.04-.936-.054-1.351-.272-.271-.208-.417-.54-.387-.88-.005-.423.178-.826.5-1.1" fill="#fff"/>
      <path id="i" data-name="Path 6" d="M24.33,31.861c-.283-.014-.559.088-.764.283-.377.545-.377,1.267,0,1.812.202.201.479.307.764.293h.314c.288.013.568-.093.775-.293.392-.54.392-1.271,0-1.812-.21-.194-.489-.296-.775-.283h-.314Z" fill="#fff"/>
      <path id="j" data-name="Path 7" d="M68.386,23.502c-1.17-.03-2.331-.208-3.457-.529l-4.651-1.207c-.545-.141-.939-.233-1.184-.275-.211-.039-.425-.06-.639-.063-.575-.036-1.139.166-1.561.558-.405.469-.605,1.082-.555,1.7v1.622h1.865v-1.7l3.834.943,3.226.691v.105l-1.446.691c-.621.302-1.257.571-1.906.806-.546.195-1.107.349-1.676.461-.553.106-1.113.173-1.676.2-.573.028-1.201.042-1.886.042h-2.011c.062-1.539-.312-3.064-1.079-4.4-.609-1.002-1.708-1.602-2.881-1.571-.56-.006-1.114.123-1.613.377-.486.25-.917.595-1.267,1.016-.37.451-.654.966-.838,1.519-.205.607-.306,1.244-.3,1.885-.062.964.275,1.911.932,2.619.716.65,1.664.982,2.629.922h2.514c-.268.841-.854,1.544-1.634,1.959-1.067.521-2.25.762-3.436.7h-1.215v2.367h1.3c1.596.084,3.174-.378,4.473-1.309,1.15-.939,1.926-2.258,2.189-3.719h2.241c.643,0,1.254-.025,1.833-.074.606-.054,1.206-.166,1.791-.335.676-.198,1.334-.45,1.969-.754.821-.396,1.619-.84,2.388-1.33l2.472-1.55h1.634v-2.367h-.379ZM52.925,27.545h-2.6c-.5.034-.997-.088-1.425-.348-.34-.271-.521-.694-.482-1.127-.024-.568.18-1.121.566-1.538.403-.404.959-.618,1.529-.59.688-.012,1.339.315,1.739.875.476.68.712,1.499.67,2.328l.003.4Z" fill="#fff"/>
      <path id="k" data-name="Path 8" d="M4.261,33.974h-.315c-.283-.014-.559.088-.764.283-.377.545-.377,1.267,0,1.812.202.201.479.307.764.293h.314c.288.013.568-.093.775-.293.391-.541.391-1.271,0-1.812-.21-.194-.489-.296-.775-.283" fill="#fff"/>
      <path id="l" data-name="Path 9" d="M6.901,33.974c-.283-.015-.56.088-.765.283-.377.545-.377,1.267,0,1.812.202.201.48.308.765.293h.314c.288.013.568-.093.775-.293.391-.541.391-1.271,0-1.812-.21-.194-.489-.296-.775-.283h-.314Z" fill="#fff"/>
      <path id="m" data-name="Path 10" d="M26.404,50.901h-.314c-.283-.015-.56.088-.765.283-.377.545-.377,1.267,0,1.812.202.201.48.307.765.293h.314c.288.013.568-.093.775-.293.392-.54.392-1.271,0-1.812-.21-.194-.489-.296-.775-.283" fill="#fff"/>
      <path id="n" data-name="Path 11" d="M23.451,50.901h-.314c-.283-.015-.56.088-.765.283-.377.545-.377,1.267,0,1.812.202.201.48.307.765.293h.314c.288.013.568-.093.775-.293.391-.541.391-1.271,0-1.812-.21-.194-.489-.296-.775-.283" fill="#fff"/>
      <path id="o" data-name="Path 12" d="M36.884,40.615l-1.827.291.335,1.823c.097.6.164,1.082.2,1.445.036.363.053.663.052.9.05.475-.178.936-.586,1.184-.636.261-1.325.372-2.011.324h-5.72c-.796.108-1.528-.449-1.637-1.245-.019-.136-.018-.274.003-.41v-3.181h-1.823v3.184c0,1.103-.58,1.655-1.739,1.655h-12.59c-.418.033-.835-.066-1.194-.283-.283-.266-.423-.651-.377-1.037v-7.207h-1.907v1.111l-2.221,1.173c-.54.284-1.061.602-1.56.953-.407.286-.777.622-1.1,1-.283.331-.502.71-.649,1.12-.144.421-.215.864-.21,1.309-.05.802.23,1.589.775,2.179.604.55,1.406.83,2.221.775.627.03,1.247-.15,1.76-.513.505-.438.852-1.031.985-1.686h.1v.251c-.076.893.224,1.778.827,2.441.78.597,1.756.878,2.734.786h11.212c.736.057,1.47-.135,2.084-.545.519-.485.849-1.138.932-1.844h.131c.121.728.524,1.379,1.121,1.812.725.426,1.56.627,2.4.577l.021-.02v.02h5.426c1.176.095,2.346-.244,3.289-.953.766-.771,1.157-1.839,1.069-2.923-.022-.885-.106-1.767-.251-2.64l-.275-1.826ZM6.063,43.883c.044.436-.152.861-.513,1.11-.554.252-1.163.36-1.77.314-.467.04-.936-.054-1.351-.272-.271-.208-.417-.54-.388-.88-.005-.423.178-.826.5-1.1.502-.408,1.051-.756,1.634-1.037l1.885-.964.003,2.829Z" fill="#fff"/>
      <path id="p" data-name="Path 13" d="M35.79,50.901h-.314c-.283-.014-.559.088-.764.283-.377.545-.377,1.267,0,1.812.202.201.479.307.764.293h.314c.288.013.568-.093.775-.293.391-.541.391-1.271,0-1.812-.21-.194-.489-.296-.775-.283" fill="#fff"/>
      <path id="q" data-name="Path 14" d="M60.928,44.93c.039.45-.092.898-.366,1.257-.356.305-.822.45-1.288.4h-3.855l-.021-.042c.419-.333.771-.63,1.058-.89.259-.23.494-.486.7-.764.177-.242.313-.513.4-.8.09-.32.132-.652.126-.985.056-.925-.348-1.819-1.079-2.388-.964-.612-2.098-.898-3.237-.817-1.475.011-2.928.352-4.253,1v2.415l2.556,3.184-.021.084h-7.583c-.029-.333-.067-.689-.115-1.068s-.108-.77-.179-1.173l-.293-1.76-1.8.335.44,2.535c.07.405.126.81.168,1.215.041.39.062.781.063,1.173.006.523-.057,1.044-.188,1.55-.226.909-.896,1.642-1.781,1.948-.572.197-1.175.29-1.78.273h-.8v2.373h.818c.778.017,1.552-.11,2.283-.377.61-.23,1.163-.587,1.624-1.048.447-.457.799-.998,1.037-1.592.258-.644.426-1.321.5-2.011h5.845c.626,0,1.249-.081,1.854-.241.61-.162,1.187-.427,1.707-.785.535.365,1.131.631,1.76.785.63.159,1.278.24,1.928.241h2.116c1.027.102,2.046-.255,2.786-.974.63-.885.927-1.965.838-3.048v-11.485h-1.969v11.48ZM54.308,45.577l-.67.569-2.87-3.433v-.084c.839-.235,1.706-.355,2.577-.358,1.745,0,2.618.421,2.618,1.264.002.361-.151.706-.419.948-.279.267-.691.633-1.236,1.1" fill="#fff"/>
      <rect id="r" data-name="Rectangle 1" x="65.789" y="33.45" width="1.948" height="15.502" fill="#fff"/>
    </g>
  </g>
</svg>