<?xml version="1.0" encoding="UTF-8"?>
<svg id="b" data-name="Layer 2" xmlns="http://www.w3.org/2000/svg" width="19.509" height="14.5" viewBox="0 0 19.509 14.5">
  <g id="c" data-name="UI Shell - Footer">
    <path id="d" data-name="link-forward-stroke-rounded" d="M6.962,0c.187.002.372.036.548.1,1.2.423,1.229,2,1.178,3.129l.295-.006c.369-.008.751-.016,1.13-.016.813-.014,1.625.049,2.426.188,2.281.339,4.294,1.675,5.493,3.645,1.044,1.899,1.551,4.045,1.468,6.21,0,.414-.335.75-.75.75-.156,0-.307-.048-.434-.138l-.314-.223c-1.143-.926-2.44-1.643-3.832-2.118-1.01-.249-2.048-.36-3.088-.331-.528,0-1.07.016-1.594.032-.264.008-.532.016-.8.022.053,1.128.031,2.722-1.177,3.148-.192.07-.395.106-.6.108-.83,0-1.391-.6-2.168-1.42-.218-.232-.466-.5-.751-.781l-1.965-1.972c-1.307-1.311-2.027-2.034-2.027-3.083s.72-1.771,2.027-3.083l1.965-1.971c.216-.216.416-.422.592-.6.966-.993,1.543-1.59,2.378-1.59ZM7.005,1.509c-.014-.005-.028-.008-.043-.009-.2,0-.787.6-1.3,1.131-.18.185-.383.394-.605.617l-1.968,1.973c-.991.995-1.589,1.6-1.589,2.024s.6,1.029,1.589,2.024l1.961,1.972c.3.3.555.572.78.811.439.466.893.948,1.076.948.033-.002.065-.008.095-.02.12-.195.181-.421.176-.65.029-.439.026-.88-.008-1.319-.011-.2-.02-.366-.02-.508,0-.414.336-.75.75-.75h0c.5,0,1.006-.015,1.54-.031s1.089-.033,1.639-.033c1.173-.03,2.345.099,3.484.384,1.209.369,2.348.938,3.368,1.684-.37-3.938-2.273-6.254-5.672-6.893-.71-.121-1.429-.175-2.149-.162-.363,0-.737.008-1.1.016s-.742.016-1.112.016c-.414,0-.75-.336-.75-.75,0-.141.009-.311.02-.507.034-.439.037-.88.008-1.319.007-.228-.052-.453-.17-.649Z" fill="#0078bb"/>
  </g>
</svg>