<svg xmlns="http://www.w3.org/2000/svg" width="133.767" height="65.251" viewBox="0 0 133.767 65.251">
  <path id="Path_40247" data-name="Path 40247" d="M271.023,93.38l.357.418a5.625,5.625,0,0,0-.488.357c-.244.183-.488.366-.505.392-1.933,1.463-3.823,2.97-5.669,4.537q-1.463,1.241-2.874,2.534A99.413,99.413,0,0,0,247.224,118c-3.692,5.234-7.507,11.913-7.507,18.549,0,.087-.044.131-.1.131a.128.128,0,0,1-.113-.1c-1.219-4.014-8.5-14.63-15.745-24.609-1.176-1.611-2.334-3.2-3.483-4.746-2.734-3.718-5.329-7.149-7.411-9.893-1.689-2.221-3.039-3.98-3.875-5.059-.6-.784-.932-1.21-.932-1.21L231.488,68.91l1.289-1.228,3.213-3.039-20.856-21.7-.853-.888-5.8-6.035A143.628,143.628,0,0,0,221.491,24.2c.392-.4.8-.81,1.21-1.228A194.255,194.255,0,0,0,238.394,4.7c.3-.409.61-.819.906-1.228.148-.183.287-.366.418-.557.061.07.235.261.5.557s.653.714,1.115,1.228c3.083,3.4,10.067,11.016,16.72,18.279.383.409.758.81,1.132,1.228l7.08,7.715c.827.906,1.6,1.75,2.316,2.534.549.592,1.054,1.149,1.524,1.663.418.444.792.853,1.132,1.219,1.306,1.428,2.081,2.273,2.081,2.273L257.465,54.158,252.1,59.087,245.979,64.7l2.6,2.978,1.071,1.228,4.171,4.781,2.212,2.525Z" transform="translate(136.677 -208.063) rotate(90)" fill="#0078bb"/>
</svg>
