<svg xmlns="http://www.w3.org/2000/svg" width="32.649" height="40.061" viewBox="0 0 32.649 40.061">
  <g id="pdf-01-stroke-rounded" transform="translate(1.5 1.5)">
    <path id="Path_58" data-name="Path 58" d="M33.649,22.384V18.042a7.887,7.887,0,0,0-.282-2.953A7.887,7.887,0,0,0,31.478,12.8L22.7,4.023a7.9,7.9,0,0,0-1.959-1.661,3.7,3.7,0,0,0-.366-.151A7.9,7.9,0,0,0,17.816,2C11.8,2,8.8,2,6.76,3.642A7.413,7.413,0,0,0,5.642,4.76C4,6.8,4,9.8,4,15.816v6.568M20.678,2.927v.927c0,5.241,0,7.862,1.628,9.49s4.249,1.628,9.49,1.628h.927" transform="translate(-4 -2)" fill="none" stroke="#fff" stroke-linecap="round" stroke-linejoin="round" stroke-width="3"/>
    <path id="Path_59" data-name="Path 59" d="M32.972,16H28.34a1.853,1.853,0,0,0-1.853,1.853v3.706m0,0v5.559m0-5.559h5.559M4.25,27.118V22.486m0,0V16H7.493a3.243,3.243,0,0,1,0,6.486ZM15.368,16h2.78a3.706,3.706,0,0,1,3.706,3.706v3.706a3.706,3.706,0,0,1-3.706,3.706h-2.78Z" transform="translate(-3.787 9.943)" fill="none" stroke="#fff" stroke-linecap="round" stroke-linejoin="round" stroke-width="3"/>
  </g>
</svg>
