<?xml version="1.0" encoding="UTF-8"?>
<svg id="b" data-name="Layer 2" xmlns="http://www.w3.org/2000/svg" width="32.684" height="40.087" viewBox="0 0 32.684 40.087">
  <g id="c" data-name="UI Shell - Footer">
    <g id="d" data-name="pdf-01-stroke-rounded">
      <path id="e" data-name="Path 58" d="M31.149,21.91v-4.342c.094-.993-.002-1.995-.282-2.953-.479-.876-1.12-1.652-1.889-2.289L20.2,3.549c-.558-.657-1.22-1.218-1.959-1.661-.119-.057-.241-.107-.366-.151-.836-.209-1.7-.281-2.559-.211-6.016,0-9.016,0-11.056,1.642-.411.332-.786.707-1.118,1.118-1.642,2.04-1.642,5.04-1.642,11.056v6.568M18.178,2.453v.927c0,5.241,0,7.862,1.628,9.49s4.249,1.628,9.49,1.628h.927" fill="none" stroke="#fff" stroke-linecap="round" stroke-linejoin="round" stroke-width="3"/>
      <path id="f" data-name="Path 59" d="M30.685,27.469h-4.632c-1.023,0-1.853.83-1.853,1.853h0v3.706M24.2,33.028v5.559M24.2,33.028h5.559M1.963,38.587v-4.632M1.963,33.955v-6.486h3.243c1.791,0,3.243,1.452,3.243,3.243s-1.452,3.243-3.243,3.243H1.963ZM13.081,27.469h2.78c2.047,0,3.706,1.659,3.706,3.706v3.706c0,2.047-1.659,3.706-3.706,3.706h-2.78v-11.118Z" fill="none" stroke="#fff" stroke-linecap="round" stroke-linejoin="round" stroke-width="3"/>
    </g>
  </g>
</svg>