<?xml version="1.0" encoding="UTF-8"?>
<svg id="b" data-name="Layer 2" xmlns="http://www.w3.org/2000/svg" width="24.416" height="24.416" viewBox="0 0 24.416 24.416">
  <g id="c" data-name="UI Shell - Footer">
    <g>
      <path id="d" data-name="Path 38653" d="M.75,12.208C.75,6.808.75,4.108,2.428,2.428S6.807.75,12.208.75s8.1,0,9.78,1.678,1.678,4.379,1.678,9.78,0,8.1-1.678,9.78-4.379,1.678-9.78,1.678-8.1,0-9.78-1.678-1.678-4.379-1.678-9.78Z" fill="none" stroke="#fff" stroke-linecap="round" stroke-linejoin="round" stroke-width="1.5"/>
      <path id="e" data-name="Path 38654" d="M6.178,18.239l5.058-5.061M18.236,6.178l-5.058,5.058M13.178,11.236l-3.65-5.058h-3.35l5.058,7M13.178,11.236l5.058,7h-3.35l-3.65-5.058" fill="none" stroke="#fff" stroke-linecap="round" stroke-linejoin="round" stroke-width="1.5"/>
    </g>
  </g>
</svg>