<?xml version="1.0" encoding="UTF-8"?>
<svg id="b" data-name="Layer 2" xmlns="http://www.w3.org/2000/svg" width="25.621" height="22" viewBox="0 0 25.621 22">
  <g id="c" data-name="UI Shell - Footer">
    <g>
      <path id="d" data-name="Path 38655" d="M12.811,21.25c2.087.005,4.169-.2,6.215-.611,2.423-.494,3.634-.741,4.74-2.162s1.105-3.053,1.105-6.316v-2.321c0-3.263,0-4.9-1.105-6.316s-2.316-1.674-4.74-2.163c-4.104-.815-8.327-.815-12.431,0-2.423.494-3.634.741-4.74,2.162s-1.105,3.053-1.105,6.317v2.324c0,3.263,0,4.9,1.105,6.316s2.317,1.668,4.74,2.162c2.046.41,4.129.614,6.216.608Z" fill="none" stroke="#fff" stroke-width="1.5"/>
      <path id="e" data-name="Path 38656" d="M17.592,11.38c-.179.731-1.131,1.255-3.036,2.305-2.072,1.141-3.107,1.712-3.946,1.492-.28-.072-.541-.203-.766-.383-.652-.526-.652-1.614-.652-3.793s0-3.267.649-3.792c.225-.18.486-.311.766-.383.839-.22,1.875.351,3.946,1.492,1.9,1.05,2.857,1.574,3.036,2.305.062.248.063.508.003.757Z" fill="none" stroke="#fff" stroke-linejoin="round" stroke-width="1.5"/>
    </g>
  </g>
</svg>